MerriweatherSans-Regular.ufo
<glyph name="numbersign" format="1">
  <advance width="1563"/>
  <unicode hex="0023"/>
  <outline>
    <contour>
      <point x="377" y="0" type="line"/>
      <point x="564" y="0" type="line"/>
      <point x="692" y="1373" type="line"/>
      <point x="501" y="1373" type="line"/>
    </contour>
    <contour>
      <point x="876" y="0" type="line"/>
      <point x="1061" y="0" type="line"/>
      <point x="1187" y="1373" type="line"/>
      <point x="997" y="1373" type="line"/>
    </contour>
    <contour>
      <point x="1378" y="880" type="line"/>
      <point x="1378" y="1033" type="line"/>
      <point x="241" y="1033" type="line"/>
      <point x="241" y="880" type="line"/>
    </contour>
    <contour>
      <point x="1334" y="355" type="line"/>
      <point x="1334" y="511" type="line"/>
      <point x="207" y="511" type="line"/>
      <point x="207" y="355" type="line"/>
    </contour>
  </outline>
</glyph>
<glyph name="ampersand" format="1">
  <advance width="1532"/>
  <unicode hex="0026"/>
  <outline>
    <contour>
      <point x="964" y="199" type="curve"/>
      <point x="895" y="169"/>
      <point x="833" y="143"/>
      <point x="739" y="143" type="curve" smooth="yes"/>
      <point x="453" y="143"/>
      <point x="354" y="271"/>
      <point x="354" y="400" type="curve" smooth="yes"/>
      <point x="354" y="522"/>
      <point x="459" y="618"/>
      <point x="606" y="681" type="curve"/>
      <point x="626" y="691"/>
      <point x="685" y="706"/>
      <point x="706" y="715" type="curve"/>
      <point x="938" y="816"/>
      <point x="1077" y="942"/>
      <point x="1077" y="1202" type="curve" smooth="yes"/>
      <point x="1077" y="1380"/>
      <point x="937" y="1546"/>
      <point x="703" y="1546" type="curve" smooth="yes"/>
      <point x="451" y="1546"/>
      <point x="289" y="1410"/>
      <point x="289" y="1188" type="curve" smooth="yes"/>
      <point x="289" y="999"/>
      <point x="409" y="852"/>
      <point x="502" y="729" type="curve"/>
      <point x="533" y="691" type="line"/>
      <point x="634" y="548"/>
      <point x="846" y="263"/>
      <point x="972" y="133" type="curve" smooth="yes"/>
      <point x="1093" y="31"/>
      <point x="1176" y="-16"/>
      <point x="1312" y="-16" type="curve" smooth="yes"/>
      <point x="1363" y="-16"/>
      <point x="1402" y="-9"/>
      <point x="1429" y="-1" type="curve"/>
      <point x="1429" y="112" type="line"/>
      <point x="1305" y="125"/>
      <point x="1225" y="153"/>
      <point x="1111" y="263" type="curve" smooth="yes"/>
      <point x="1006" y="370"/>
      <point x="791" y="653"/>
      <point x="720" y="755" type="curve"/>
      <point x="688" y="797" type="line"/>
      <point x="554" y="994"/>
      <point x="493" y="1028"/>
      <point x="493" y="1193" type="curve" smooth="yes"/>
      <point x="493" y="1336"/>
      <point x="589" y="1390"/>
      <point x="699" y="1390" type="curve" smooth="yes"/>
      <point x="827" y="1390"/>
      <point x="890" y="1281"/>
      <point x="890" y="1199" type="curve" smooth="yes"/>
      <point x="890" y="993"/>
      <point x="769" y="897"/>
      <point x="573" y="831" type="curve"/>
      <point x="562" y="827"/>
      <point x="521" y="815"/>
      <point x="510" y="810" type="curve"/>
      <point x="313" y="731"/>
      <point x="147" y="600"/>
      <point x="147" y="394" type="curve" smooth="yes"/>
      <point x="147" y="121"/>
      <point x="396" y="-16"/>
      <point x="752" y="-16" type="curve" smooth="yes"/>
      <point x="881" y="-16"/>
      <point x="1028" y="34"/>
      <point x="1112" y="92" type="curve"/>
      <point x="1128" y="102"/>
      <point x="1139" y="123"/>
      <point x="1154" y="135" type="curve"/>
      <point x="1281" y="215"/>
      <point x="1351" y="344"/>
      <point x="1351" y="522" type="curve" smooth="yes"/>
      <point x="1351" y="617"/>
      <point x="1332" y="693"/>
      <point x="1322" y="728" type="curve"/>
      <point x="1130" y="728" type="line"/>
      <point x="1138" y="700"/>
      <point x="1163" y="616"/>
      <point x="1163" y="523" type="curve" smooth="yes"/>
      <point x="1163" y="380"/>
      <point x="1105" y="300"/>
      <point x="1015" y="241" type="curve"/>
      <point x="1004" y="229"/>
      <point x="993" y="218"/>
    </contour>
  </outline>
</glyph>
<glyph name="parenleft" format="1">
  <advance width="846"/>
  <unicode hex="0028"/>
  <outline>
    <contour>
      <point x="567" y="-330" type="curve"/>
      <point x="718" y="-255" type="line"/>
      <point x="621" y="-183"/>
      <point x="317" y="130"/>
      <point x="334" y="723" type="curve" smooth="yes"/>
      <point x="350" y="1298"/>
      <point x="646" y="1600"/>
      <point x="718" y="1656" type="curve"/>
      <point x="567" y="1730" type="line"/>
      <point x="475" y="1679"/>
      <point x="120" y="1297"/>
      <point x="120" y="723" type="curve" smooth="yes"/>
      <point x="120" y="48"/>
      <point x="482" y="-275"/>
    </contour>
  </outline>
</glyph>
<glyph name="asterisk" format="1">
  <advance width="1208"/>
  <unicode hex="002A"/>
  <outline>
    <contour>
      <point x="514" y="647" type="line"/>
      <point x="706" y="648" type="line"/>
      <point x="685" y="910" type="line"/>
      <point x="683" y="918"/>
      <point x="648" y="1071"/>
      <point x="646" y="1078" type="curve"/>
      <point x="777" y="965" type="line"/>
      <point x="994" y="821" type="line"/>
      <point x="1091" y="991" type="line"/>
      <point x="855" y="1106" type="line"/>
      <point x="690" y="1155" type="line"/>
      <point x="854" y="1210" type="line"/>
      <point x="1086" y="1331" type="line"/>
      <point x="991" y="1494" type="line"/>
      <point x="771" y="1348" type="line"/>
      <point x="764" y="1343"/>
      <point x="650" y="1234"/>
      <point x="646" y="1230" type="curve"/>
      <point x="680" y="1398" type="line"/>
      <point x="693" y="1660" type="line"/>
      <point x="501" y="1660" type="line"/>
      <point x="520" y="1395" type="line"/>
      <point x="522" y="1387"/>
      <point x="559" y="1233"/>
      <point x="559" y="1228" type="curve"/>
      <point x="430" y="1341" type="line"/>
      <point x="210" y="1486" type="line"/>
      <point x="117" y="1321" type="line"/>
      <point x="351" y="1203" type="line"/>
      <point x="359" y="1201"/>
      <point x="511" y="1157"/>
      <point x="517" y="1154" type="curve"/>
      <point x="352" y="1101" type="line"/>
      <point x="121" y="977" type="line"/>
      <point x="217" y="813" type="line"/>
      <point x="435" y="959" type="line"/>
      <point x="561" y="1080" type="line"/>
      <point x="526" y="910" type="line"/>
    </contour>
  </outline>
</glyph>
<glyph name="plus" format="1">
  <advance width="1393"/>
  <unicode hex="002B"/>
  <outline>
    <contour>
      <point x="607" y="285" type="line"/>
      <point x="785" y="285" type="line"/>
      <point x="785" y="521" type="line"/>
      <point x="777" y="692" type="line"/>
      <point x="918" y="685" type="line"/>
      <point x="1164" y="685" type="line"/>
      <point x="1164" y="862" type="line"/>
      <point x="918" y="862" type="line"/>
      <point x="777" y="851" type="line"/>
      <point x="785" y="1023" type="line"/>
      <point x="785" y="1251" type="line"/>
      <point x="607" y="1251" type="line"/>
      <point x="607" y="1023" type="line"/>
      <point x="614" y="851" type="line"/>
      <point x="449" y="862" type="line"/>
      <point x="229" y="862" type="line"/>
      <point x="229" y="685" type="line"/>
      <point x="449" y="685" type="line"/>
      <point x="614" y="692" type="line"/>
      <point x="607" y="521" type="line"/>
    </contour>
  </outline>
</glyph>
<glyph name="period" format="1">
  <advance width="602"/>
  <unicode hex="002E"/>
  <outline>
    <contour>
      <point x="293" y="-22" type="curve" smooth="yes"/>
      <point x="379" y="-22"/>
      <point x="458" y="54"/>
      <point x="455" y="153" type="curve" smooth="yes"/>
      <point x="453" y="234"/>
      <point x="403" y="304"/>
      <point x="308" y="304" type="curve" smooth="yes"/>
      <point x="225" y="304"/>
      <point x="145" y="225"/>
      <point x="147" y="130" type="curve" smooth="yes"/>
      <point x="150" y="42"/>
      <point x="217" y="-22"/>
    </contour>
  </outline>
</glyph>
<glyph name="slash" format="1">
  <advance width="854"/>
  <unicode hex="002F"/>
  <outline>
    <contour>
      <point x="42" y="-363" type="line"/>
      <point x="240" y="-363" type="line"/>
      <point x="810" y="1599" type="line"/>
      <point x="612" y="1599" type="line"/>
    </contour>
  </outline>
</glyph>
<glyph name="zero" format="1">
  <advance width="1386"/>
  <unicode hex="0030"/>
  <outline>
    <contour>
      <point x="686" y="-16" type="curve" smooth="yes"/>
      <point x="1015" y="-16"/>
      <point x="1235" y="253"/>
      <point x="1238" y="638" type="curve" smooth="yes"/>
      <point x="1241" y="990"/>
      <point x="1113" y="1274"/>
      <point x="711" y="1274" type="curve" smooth="yes"/>
      <point x="393" y="1274"/>
      <point x="153" y="1031"/>
      <point x="148" y="643" type="curve" smooth="yes"/>
      <point x="144" y="301"/>
      <point x="292" y="-16"/>
    </contour>
    <contour>
      <point x="694" y="136" type="curve" smooth="yes"/>
      <point x="474" y="141"/>
      <point x="375" y="392"/>
      <point x="375" y="652" type="curve" smooth="yes"/>
      <point x="375" y="940"/>
      <point x="485" y="1121"/>
      <point x="698" y="1120" type="curve" smooth="yes"/>
      <point x="917" y="1119"/>
      <point x="1011" y="901"/>
      <point x="1011" y="629" type="curve" smooth="yes"/>
      <point x="1011" y="320"/>
      <point x="907" y="131"/>
    </contour>
  </outline>
</glyph>
<glyph name="one" format="1">
  <advance width="918"/>
  <unicode hex="0031"/>
  <outline>
    <contour>
      <point x="378" y="0" type="line"/>
      <point x="607" y="0" type="line"/>
      <point x="607" y="1253" type="line"/>
      <point x="507" y="1278" type="line"/>
      <point x="451" y="1227"/>
      <point x="260" y="1116"/>
      <point x="130" y="1077" type="curve"/>
      <point x="155" y="946" type="line"/>
      <point x="232" y="960"/>
      <point x="302" y="978"/>
      <point x="378" y="999" type="curve"/>
    </contour>
  </outline>
</glyph>
<glyph name="two" format="1">
  <advance width="1269"/>
  <unicode hex="0032"/>
  <outline>
    <contour>
      <point x="180" y="0" type="line"/>
      <point x="1125" y="0" type="line"/>
      <point x="1125" y="177" type="line"/>
      <point x="357" y="170" type="line"/>
      <point x="356" y="86" type="line"/>
      <point x="768" y="292"/>
      <point x="1056" y="608"/>
      <point x="1056" y="904" type="curve" smooth="yes"/>
      <point x="1056" y="1107"/>
      <point x="951" y="1292"/>
      <point x="619" y="1292" type="curve" smooth="yes"/>
      <point x="397" y="1292"/>
      <point x="243" y="1184"/>
      <point x="166" y="1099" type="curve"/>
      <point x="259" y="975" type="line"/>
      <point x="331" y="1049"/>
      <point x="462" y="1117"/>
      <point x="595" y="1117" type="curve" smooth="yes"/>
      <point x="751" y="1117"/>
      <point x="832" y="1027"/>
      <point x="832" y="892" type="curve" smooth="yes"/>
      <point x="832" y="611"/>
      <point x="487" y="311"/>
      <point x="147" y="113" type="curve"/>
    </contour>
  </outline>
</glyph>
<glyph name="three" format="1">
  <advance width="1147"/>
  <unicode hex="0033"/>
  <outline>
    <contour>
      <point x="153" y="-319" type="line"/>
      <point x="226" y="-332"/>
      <point x="294" y="-339"/>
      <point x="359" y="-339" type="curve" smooth="yes"/>
      <point x="783" y="-341"/>
      <point x="1038" y="-92"/>
      <point x="1038" y="189" type="curve" smooth="yes"/>
      <point x="1038" y="379"/>
      <point x="884" y="560"/>
      <point x="612" y="558" type="curve"/>
      <point x="612" y="526" type="line"/>
      <point x="797" y="588"/>
      <point x="957" y="734"/>
      <point x="957" y="931" type="curve" smooth="yes"/>
      <point x="957" y="1169"/>
      <point x="755" y="1289"/>
      <point x="523" y="1289" type="curve" smooth="yes"/>
      <point x="349" y="1289"/>
      <point x="182" y="1196"/>
      <point x="104" y="1132" type="curve"/>
      <point x="190" y="1007" type="line"/>
      <point x="262" y="1058"/>
      <point x="361" y="1115"/>
      <point x="504" y="1115" type="curve" smooth="yes"/>
      <point x="637" y="1115"/>
      <point x="742" y="1056"/>
      <point x="740" y="904" type="curve" smooth="yes"/>
      <point x="739" y="788"/>
      <point x="650" y="688"/>
      <point x="502" y="630" type="curve" smooth="yes"/>
      <point x="447" y="606"/>
      <point x="386" y="588"/>
      <point x="320" y="575" type="curve"/>
      <point x="366" y="424" type="line"/>
      <point x="457" y="446" type="line"/>
      <point x="710" y="465"/>
      <point x="814" y="345"/>
      <point x="814" y="173" type="curve" smooth="yes"/>
      <point x="814" y="-26"/>
      <point x="613" y="-184"/>
      <point x="316" y="-184" type="curve" smooth="yes"/>
      <point x="265" y="-184"/>
      <point x="207" y="-178"/>
      <point x="152" y="-167" type="curve"/>
    </contour>
  </outline>
</glyph>
<glyph name="four" format="1">
  <advance width="1339"/>
  <unicode hex="0034"/>
  <outline>
    <contour>
      <point x="170" y="0" type="line"/>
      <point x="1271" y="0" type="line"/>
      <point x="1271" y="170" type="line"/>
      <point x="360" y="170" type="line"/>
      <point x="449" y="321" type="line"/>
      <point x="915" y="1215" type="line"/>
      <point x="779" y="1299" type="line"/>
      <point x="700" y="1299" type="line"/>
      <point x="116" y="104" type="line"/>
    </contour>
    <contour>
      <point x="820" y="-376" type="line"/>
      <point x="1040" y="-376" type="line"/>
      <point x="1040" y="603" type="line"/>
      <point x="838" y="603" type="line"/>
      <point x="820" y="170" type="line"/>
    </contour>
  </outline>
</glyph>
<glyph name="five" format="1">
  <advance width="1227"/>
  <unicode hex="0035"/>
  <outline>
    <contour>
      <point x="328" y="-349" type="curve" smooth="yes"/>
      <point x="819" y="-343"/>
      <point x="1080" y="-48"/>
      <point x="1080" y="237" type="curve" smooth="yes"/>
      <point x="1080" y="514"/>
      <point x="923" y="691"/>
      <point x="627" y="691" type="curve" smooth="yes"/>
      <point x="557" y="691"/>
      <point x="479" y="680"/>
      <point x="398" y="662" type="curve"/>
      <point x="437" y="1062" type="line"/>
      <point x="1015" y="1062" type="line"/>
      <point x="1037" y="1252" type="line"/>
      <point x="266" y="1252" type="line"/>
      <point x="210" y="509" type="line"/>
      <point x="260" y="479" type="line"/>
      <point x="358" y="510"/>
      <point x="451" y="527"/>
      <point x="530" y="527" type="curve" smooth="yes"/>
      <point x="758" y="527"/>
      <point x="856" y="424"/>
      <point x="856" y="223" type="curve" smooth="yes"/>
      <point x="856" y="-17"/>
      <point x="609" y="-191"/>
      <point x="268" y="-190" type="curve" smooth="yes"/>
      <point x="247" y="-190"/>
      <point x="226" y="-189"/>
      <point x="205" y="-188" type="curve"/>
      <point x="204" y="-336" type="line"/>
      <point x="239" y="-347"/>
      <point x="295" y="-349"/>
    </contour>
  </outline>
</glyph>
<glyph name="six" format="1">
  <advance width="1373"/>
  <unicode hex="0036"/>
  <outline>
    <contour>
      <point x="160" y="571" type="curve" smooth="yes"/>
      <point x="160" y="254"/>
      <point x="350" y="-16"/>
      <point x="674" y="-16" type="curve" smooth="yes"/>
      <point x="1035" y="-16"/>
      <point x="1208" y="257"/>
      <point x="1208" y="543" type="curve" smooth="yes"/>
      <point x="1208" y="782"/>
      <point x="1062" y="988"/>
      <point x="805" y="988" type="curve" smooth="yes"/>
      <point x="665" y="988"/>
      <point x="561" y="936"/>
      <point x="524" y="901" type="curve"/>
      <point x="584" y="771" type="line"/>
      <point x="614" y="790"/>
      <point x="679" y="817"/>
      <point x="760" y="817" type="curve" smooth="yes"/>
      <point x="875" y="817"/>
      <point x="985" y="745"/>
      <point x="985" y="497" type="curve" smooth="yes"/>
      <point x="985" y="315"/>
      <point x="892" y="137"/>
      <point x="703" y="137" type="curve" smooth="yes"/>
      <point x="452" y="137"/>
      <point x="391" y="390"/>
      <point x="399" y="669" type="curve" smooth="yes"/>
      <point x="409" y="992"/>
      <point x="671" y="1330"/>
      <point x="1049" y="1431" type="curve"/>
      <point x="989" y="1573" type="line"/>
      <point x="610" y="1500"/>
      <point x="160" y="1112"/>
    </contour>
  </outline>
</glyph>
<glyph name="equal" format="1">
  <advance width="1399"/>
  <unicode hex="003D"/>
  <outline>
    <contour>
      <point x="242" y="949" type="line"/>
      <point x="1157" y="949" type="line"/>
      <point x="1157" y="1116" type="line"/>
      <point x="242" y="1116" type="line"/>
    </contour>
    <contour>
      <point x="242" y="433" type="line"/>
      <point x="1157" y="433" type="line"/>
      <point x="1157" y="599" type="line"/>
      <point x="242" y="599" type="line"/>
    </contour>
  </outline>
</glyph>
<glyph name="at" format="1">
  <advance width="2218"/>
  <unicode hex="0040"/>
  <outline>
    <contour>
      <point x="1073" y="-478" type="curve" smooth="yes"/>
      <point x="1266" y="-478"/>
      <point x="1457" y="-428"/>
      <point x="1542" y="-375" type="curve"/>
      <point x="1503" y="-246" type="line"/>
      <point x="1433" y="-281"/>
      <point x="1292" y="-330"/>
      <point x="1093" y="-330" type="curve" smooth="yes"/>
      <point x="729" y="-330"/>
      <point x="389" y="-128"/>
      <point x="389" y="445" type="curve" smooth="yes"/>
      <point x="389" y="1008"/>
      <point x="761" y="1397"/>
      <point x="1213" y="1397" type="curve" smooth="yes"/>
      <point x="1556" y="1397"/>
      <point x="1831" y="1281"/>
      <point x="1831" y="796" type="curve" smooth="yes"/>
      <point x="1831" y="439"/>
      <point x="1638" y="154"/>
      <point x="1490" y="154" type="curve" smooth="yes"/>
      <point x="1444" y="154"/>
      <point x="1445" y="256"/>
      <point x="1473" y="437" type="curve" smooth="yes"/>
      <point x="1502" y="627"/>
      <point x="1560" y="893"/>
      <point x="1599" y="1039" type="curve"/>
      <point x="1427" y="1008" type="line"/>
      <point x="1371" y="1047"/>
      <point x="1281" y="1063"/>
      <point x="1195" y="1063" type="curve" smooth="yes"/>
      <point x="811" y="1063"/>
      <point x="644" y="712"/>
      <point x="637" y="435" type="curve" smooth="yes"/>
      <point x="631" y="135"/>
      <point x="784" y="-5"/>
      <point x="919" y="-5" type="curve" smooth="yes"/>
      <point x="1136" y="-5"/>
      <point x="1302" y="285"/>
      <point x="1385" y="532" type="curve"/>
      <point x="1381" y="532"/>
      <point x="1343" y="533"/>
      <point x="1339" y="533" type="curve"/>
      <point x="1286" y="347"/>
      <point x="1283" y="245"/>
      <point x="1288" y="182" type="curve" smooth="yes"/>
      <point x="1297" y="61"/>
      <point x="1342" y="-5"/>
      <point x="1438" y="-5" type="curve" smooth="yes"/>
      <point x="1723" y="-5"/>
      <point x="2008" y="303"/>
      <point x="2008" y="832" type="curve" smooth="yes"/>
      <point x="2008" y="1289"/>
      <point x="1698" y="1543"/>
      <point x="1252" y="1543" type="curve" smooth="yes"/>
      <point x="665" y="1543"/>
      <point x="213" y="1100"/>
      <point x="213" y="424" type="curve" smooth="yes"/>
      <point x="213" y="-187"/>
      <point x="591" y="-478"/>
    </contour>
    <contour>
      <point x="965" y="172" type="curve" smooth="yes"/>
      <point x="858" y="172"/>
      <point x="820" y="300"/>
      <point x="825" y="475" type="curve" smooth="yes"/>
      <point x="831" y="680"/>
      <point x="954" y="914"/>
      <point x="1175" y="914" type="curve" smooth="yes"/>
      <point x="1235" y="914"/>
      <point x="1319" y="894"/>
      <point x="1352" y="839" type="curve"/>
      <point x="1321" y="610"/>
      <point x="1103" y="172"/>
    </contour>
  </outline>
</glyph>
<glyph name="D" format="1">
  <advance width="1472"/>
  <unicode hex="0044"/>
  <outline>
    <contour>
      <point x="194" y="0" type="line"/>
      <point x="279" y="0" type="line" smooth="yes"/>
      <point x="388" y="0"/>
      <point x="541" y="-14"/>
      <point x="642" y="-16" type="curve" smooth="yes"/>
      <point x="1102" y="-25"/>
      <point x="1388" y="285"/>
      <point x="1388" y="804" type="curve" smooth="yes"/>
      <point x="1388" y="1267"/>
      <point x="1155" y="1538"/>
      <point x="666" y="1538" type="curve" smooth="yes"/>
      <point x="539" y="1538"/>
      <point x="404" y="1522"/>
      <point x="306" y="1522" type="curve" smooth="yes"/>
      <point x="194" y="1522" type="line"/>
    </contour>
    <contour>
      <point x="418" y="168" type="curve"/>
      <point x="418" y="1361" type="line"/>
      <point x="462" y="1370"/>
      <point x="532" y="1377"/>
      <point x="614" y="1377" type="curve" smooth="yes"/>
      <point x="972" y="1377"/>
      <point x="1156" y="1221"/>
      <point x="1156" y="771" type="curve" smooth="yes"/>
      <point x="1156" y="334"/>
      <point x="956" y="155"/>
      <point x="677" y="149" type="curve" smooth="yes"/>
      <point x="591" y="148"/>
      <point x="485" y="153"/>
    </contour>
    <contour>
      <point x="763" y="-170" type="move" name="btm"/>
    </contour>
    <contour>
      <point x="729" y="1700" type="move" name="top"/>
    </contour>
  </outline>
</glyph>
<glyph name="F" format="1">
  <advance width="1083"/>
  <unicode hex="0046"/>
  <outline>
    <contour>
      <point x="194" y="0" type="line"/>
      <point x="418" y="0" type="line"/>
      <point x="418" y="679" type="line"/>
      <point x="905" y="679" type="line"/>
      <point x="905" y="851" type="line"/>
      <point x="418" y="851" type="line"/>
      <point x="418" y="1350" type="line"/>
      <point x="1068" y="1350" type="line"/>
      <point x="1068" y="1522" type="line"/>
      <point x="194" y="1522" type="line"/>
    </contour>
    <contour>
      <point x="685" y="-170" type="move" name="btm"/>
    </contour>
    <contour>
      <point x="675" y="1700" type="move" name="top"/>
    </contour>
  </outline>
</glyph>
<glyph name="K" format="1">
  <advance width="1371"/>
  <unicode hex="004B"/>
  <outline>
    <contour>
      <point x="194" y="0" type="line"/>
      <point x="417" y="0" type="line"/>
      <point x="417" y="608" type="line"/>
      <point x="362" y="417" type="line"/>
      <point x="638" y="738" type="line"/>
      <point x="663" y="767" type="line"/>
      <point x="1283" y="1522" type="line"/>
      <point x="1020" y="1522" type="line"/>
      <point x="417" y="758" type="line"/>
      <point x="417" y="1522" type="line"/>
      <point x="194" y="1522" type="line"/>
    </contour>
    <contour>
      <point x="984" y="113" type="curve" smooth="yes"/>
      <point x="1019" y="51"/>
      <point x="1027" y="26"/>
      <point x="1045" y="0" type="curve"/>
      <point x="1302" y="0" type="line"/>
      <point x="1237" y="110" type="line"/>
      <point x="1104" y="346"/>
      <point x="786" y="782"/>
      <point x="721" y="907" type="curve"/>
      <point x="641" y="813" type="line"/>
      <point x="563" y="773" type="line"/>
      <point x="667" y="595"/>
      <point x="872" y="315"/>
    </contour>
    <contour>
      <point x="692" y="-170" type="move" name="btm"/>
    </contour>
    <contour>
      <point x="692" y="1700" type="move" name="top"/>
    </contour>
  </outline>
</glyph>
<glyph name="L" format="1">
  <advance width="1080"/>
  <unicode hex="004C"/>
  <outline>
    <contour>
      <point x="194" y="0" type="line"/>
      <point x="1026" y="0" type="line"/>
      <point x="1026" y="175" type="line"/>
      <point x="422" y="175" type="line"/>
      <point x="422" y="1522" type="line"/>
      <point x="194" y="1522" type="line"/>
    </contour>
    <contour>
      <point x="603" y="-170" type="move" name="btm"/>
    </contour>
    <contour>
      <point x="306" y="1700" type="move" name="top"/>
    </contour>
  </outline>
</glyph>
<glyph name="M" format="1">
  <advance width="1923"/>
  <unicode hex="004D"/>
  <outline>
    <contour>
      <point x="134" y="-1" type="line"/>
      <point x="350" y="0" type="line"/>
      <point x="433" y="946" type="line"/>
      <point x="460" y="1355" type="line"/>
      <point x="572" y="946" type="line"/>
      <point x="904" y="-15" type="line"/>
      <point x="1024" y="-15" type="line"/>
      <point x="1342" y="946" type="line"/>
      <point x="1444" y="1356" type="line"/>
      <point x="1473" y="946" type="line"/>
      <point x="1566" y="0" type="line"/>
      <point x="1790" y="0" type="line"/>
      <point x="1608" y="1522" type="line"/>
      <point x="1309" y="1522" type="line"/>
      <point x="1039" y="653" type="line"/>
      <point x="964" y="330" type="line"/>
      <point x="885" y="653" type="line"/>
      <point x="603" y="1522" type="line"/>
      <point x="288" y="1522" type="line"/>
    </contour>
    <contour>
      <point x="965" y="-170" type="move" name="btm"/>
    </contour>
    <contour>
      <point x="965" y="1700" type="move" name="top"/>
    </contour>
  </outline>
</glyph>
<glyph name="Q" format="1">
  <advance width="1569"/>
  <unicode hex="0051"/>
  <outline>
    <contour>
      <point x="1328" y="-294" type="curve" smooth="yes"/>
      <point x="1404" y="-294"/>
      <point x="1480" y="-275"/>
      <point x="1511" y="-254" type="curve"/>
      <point x="1511" y="-94" type="line"/>
      <point x="1465" y="-110"/>
      <point x="1379" y="-113"/>
      <point x="1327" y="-113" type="curve" smooth="yes"/>
      <point x="1174" y="-113"/>
      <point x="1017" y="-62"/>
      <point x="937" y="68" type="curve"/>
      <point x="832" y="68" type="line"/>
      <point x="733" y="32" type="line"/>
      <point x="910" y="-234"/>
      <point x="1103" y="-294"/>
    </contour>
    <component base="O"/>
    <contour>
      <point x="785" y="-170" type="move" name="btm"/>
    </contour>
    <contour>
      <point x="785" y="1700" type="move" name="top"/>
    </contour>
  </outline>
</glyph>
<glyph name="R" format="1">
  <advance width="1367"/>
  <unicode hex="0052"/>
  <outline>
    <contour>
      <point x="417" y="0" type="line"/>
      <point x="417" y="648" type="line"/>
      <point x="665" y="648"/>
      <point x="733" y="649"/>
      <point x="817" y="662" type="curve" smooth="yes"/>
      <point x="1050" y="699"/>
      <point x="1197" y="844"/>
      <point x="1197" y="1110" type="curve" smooth="yes"/>
      <point x="1197" y="1414"/>
      <point x="989" y="1538"/>
      <point x="679" y="1538" type="curve" smooth="yes"/>
      <point x="532" y="1538"/>
      <point x="390" y="1522"/>
      <point x="291" y="1522" type="curve" smooth="yes"/>
      <point x="194" y="1522" type="line"/>
      <point x="194" y="0" type="line"/>
    </contour>
    <contour>
      <point x="417" y="806" type="curve"/>
      <point x="417" y="1356" type="line"/>
      <point x="481" y="1369"/>
      <point x="563" y="1374"/>
      <point x="646" y="1374" type="curve" smooth="yes"/>
      <point x="880" y="1374"/>
      <point x="969" y="1288"/>
      <point x="969" y="1099" type="curve" smooth="yes"/>
      <point x="969" y="888"/>
      <point x="849" y="800"/>
      <point x="652" y="800" type="curve" smooth="yes"/>
      <point x="598" y="800"/>
      <point x="461" y="801"/>
    </contour>
    <contour>
      <point x="1053" y="0" type="curve"/>
      <point x="1306" y="0" type="line"/>
      <point x="1285" y="37"/>
      <point x="1265" y="74"/>
      <point x="1245" y="112" type="curve" smooth="yes"/>
      <point x="1136" y="310"/>
      <point x="1051" y="637"/>
      <point x="888" y="707" type="curve"/>
      <point x="755" y="724" type="line"/>
      <point x="662" y="655" type="line"/>
      <point x="836" y="625"/>
      <point x="913" y="297"/>
      <point x="998" y="112" type="curve" smooth="yes"/>
      <point x="1028" y="48"/>
      <point x="1035" y="26"/>
    </contour>
    <contour>
      <point x="689" y="-170" type="move" name="btm"/>
    </contour>
    <contour>
      <point x="710" y="1700" type="move" name="top"/>
    </contour>
  </outline>
</glyph>
<glyph name="S" format="1">
  <advance width="1132"/>
  <unicode hex="0053"/>
  <outline>
    <contour>
      <point x="555" y="-16" type="curve" smooth="yes"/>
      <point x="853" y="-16"/>
      <point x="1062" y="116"/>
      <point x="1062" y="398" type="curve" smooth="yes"/>
      <point x="1062" y="636"/>
      <point x="837" y="761"/>
      <point x="641" y="862" type="curve" smooth="yes"/>
      <point x="422" y="975"/>
      <point x="338" y="1028"/>
      <point x="338" y="1177" type="curve" smooth="yes"/>
      <point x="338" y="1308"/>
      <point x="484" y="1363"/>
      <point x="628" y="1363" type="curve" smooth="yes"/>
      <point x="792" y="1363"/>
      <point x="870" y="1325"/>
      <point x="940" y="1283" type="curve"/>
      <point x="985" y="1459" type="line"/>
      <point x="932" y="1493"/>
      <point x="815" y="1538"/>
      <point x="631" y="1538" type="curve" smooth="yes"/>
      <point x="384" y="1538"/>
      <point x="125" y="1439"/>
      <point x="125" y="1147" type="curve" smooth="yes"/>
      <point x="125" y="927"/>
      <point x="317" y="781"/>
      <point x="506" y="689" type="curve" smooth="yes"/>
      <point x="720" y="585"/>
      <point x="843" y="522"/>
      <point x="843" y="372" type="curve" smooth="yes"/>
      <point x="843" y="222"/>
      <point x="731" y="161"/>
      <point x="540" y="161" type="curve" smooth="yes"/>
      <point x="401" y="161"/>
      <point x="256" y="208"/>
      <point x="181" y="254" type="curve"/>
      <point x="128" y="71" type="line"/>
      <point x="182" y="36"/>
      <point x="355" y="-16"/>
    </contour>
    <contour>
      <point x="559" y="-170" type="move" name="btm"/>
    </contour>
    <contour>
      <point x="603" y="1700" type="move" name="top"/>
    </contour>
  </outline>
</glyph>
<glyph name="T" format="1">
  <advance width="1303"/>
  <unicode hex="0054"/>
  <outline>
    <contour>
      <point x="538" y="0" type="line"/>
      <point x="763" y="0" type="line"/>
      <point x="763" y="1350" type="line"/>
      <point x="1240" y="1350" type="line"/>
      <point x="1240" y="1522" type="line"/>
      <point x="63" y="1522" type="line"/>
      <point x="63" y="1350" type="line"/>
      <point x="538" y="1350" type="line"/>
    </contour>
    <contour>
      <point x="643" y="-170" type="move" name="btm"/>
    </contour>
    <contour>
      <point x="643" y="1700" type="move" name="top"/>
    </contour>
  </outline>
</glyph>
<glyph name="V" format="1">
  <advance width="1355"/>
  <unicode hex="0056"/>
  <outline>
    <contour>
      <point x="591" y="-13" type="line"/>
      <point x="778" y="-13" type="line"/>
      <point x="1333" y="1522" type="line"/>
      <point x="1099" y="1522" type="line"/>
      <point x="755" y="498" type="line"/>
      <point x="686" y="263" type="line"/>
      <point x="619" y="498" type="line"/>
      <point x="259" y="1522" type="line"/>
      <point x="22" y="1522" type="line"/>
    </contour>
    <contour>
      <point x="680" y="-170" type="move" name="btm"/>
    </contour>
    <contour>
      <point x="680" y="1700" type="move" name="top"/>
    </contour>
  </outline>
</glyph>
<glyph name="X" format="1">
  <advance width="1314"/>
  <unicode hex="0058"/>
  <outline>
    <contour>
      <point x="43" y="0" type="line"/>
      <point x="282" y="0" type="line"/>
      <point x="544" y="448" type="line"/>
      <point x="677" y="673" type="line"/>
      <point x="613" y="672" type="line"/>
      <point x="749" y="448" type="line"/>
      <point x="1018" y="0" type="line"/>
      <point x="1272" y="0" type="line"/>
      <point x="740" y="824" type="line"/>
      <point x="770" y="729" type="line"/>
      <point x="1262" y="1522" type="line"/>
      <point x="1023" y="1522" type="line"/>
      <point x="786" y="1120" type="line"/>
      <point x="642" y="875" type="line"/>
      <point x="693" y="875" type="line"/>
      <point x="544" y="1120" type="line"/>
      <point x="296" y="1523" type="line"/>
      <point x="45" y="1522" type="line"/>
      <point x="560" y="729" type="line"/>
      <point x="544" y="820" type="line"/>
    </contour>
    <contour>
      <point x="641" y="-170" type="move" name="btm"/>
    </contour>
    <contour>
      <point x="641" y="1700" type="move" name="top"/>
    </contour>
  </outline>
</glyph>
<glyph name="Y" format="1">
  <advance width="1264"/>
  <unicode hex="0059"/>
  <outline>
    <contour>
      <point x="749" y="0" type="line"/>
      <point x="749" y="650" type="line"/>
      <point x="712" y="524" type="line"/>
      <point x="1242" y="1522" type="line"/>
      <point x="1008" y="1522" type="line"/>
      <point x="677" y="862" type="line"/>
      <point x="625" y="709" type="line"/>
      <point x="661" y="709" type="line"/>
      <point x="598" y="862" type="line"/>
      <point x="260" y="1522" type="line"/>
      <point x="22" y="1522" type="line"/>
      <point x="560" y="525" type="line"/>
      <point x="523" y="652" type="line"/>
      <point x="523" y="0" type="line"/>
    </contour>
    <contour>
      <point x="650" y="-170" type="move" name="btm"/>
    </contour>
    <contour>
      <point x="650" y="1700" type="move" name="top"/>
    </contour>
  </outline>
</glyph>
<glyph name="Z" format="1">
  <advance width="1294"/>
  <unicode hex="005A"/>
  <outline>
    <contour>
      <point x="134" y="0" type="line"/>
      <point x="1157" y="0" type="line"/>
      <point x="1157" y="175" type="line"/>
      <point x="382" y="175" type="line"/>
      <point x="456" y="260" type="line"/>
      <point x="1216" y="1441" type="line"/>
      <point x="1170" y="1522" type="line"/>
      <point x="174" y="1522" type="line"/>
      <point x="174" y="1344" type="line"/>
      <point x="924" y="1344" type="line"/>
      <point x="866" y="1273" type="line"/>
      <point x="89" y="84" type="line"/>
    </contour>
    <contour>
      <point x="644" y="-170" type="move" name="btm"/>
    </contour>
    <contour>
      <point x="679" y="1700" type="move" name="top"/>
    </contour>
  </outline>
</glyph>
<glyph name="asciicircum" format="1">
  <advance width="1363"/>
  <unicode hex="005E"/>
  <outline>
    <contour>
      <point x="185" y="490" type="line"/>
      <point x="579" y="1531" type="line"/>
      <point x="784" y="1531" type="line"/>
      <point x="1178" y="490" type="line"/>
      <point x="967" y="490" type="line"/>
      <point x="672" y="1315" type="line"/>
      <point x="691" y="1315" type="line"/>
      <point x="396" y="490" type="line"/>
    </contour>
  </outline>
</glyph>
<glyph name="b" format="1">
  <advance width="1238"/>
  <unicode hex="0062"/>
  <outline>
    <contour>
      <point x="386" y="165" type="line"/>
      <point x="386" y="989" type="line"/>
      <point x="376" y="995" type="line"/>
      <point x="386" y="1189" type="line"/>
      <point x="386" y="1661" type="line"/>
      <point x="166" y="1661" type="line"/>
      <point x="166" y="64" type="line"/>
    </contour>
    <contour>
      <point x="166" y="64" type="line"/>
      <point x="209" y="36"/>
      <point x="407" y="-18"/>
      <point x="566" y="-18" type="curve" smooth="yes"/>
      <point x="912" y="-18"/>
      <point x="1141" y="243"/>
      <point x="1141" y="612" type="curve" smooth="yes"/>
      <point x="1141" y="982"/>
      <point x="931" y="1156"/>
      <point x="691" y="1156" type="curve" smooth="yes"/>
      <point x="484" y="1156"/>
      <point x="396" y="1049"/>
      <point x="348" y="999" type="curve"/>
      <point x="386" y="890" type="line"/>
      <point x="434" y="928"/>
      <point x="521" y="983"/>
      <point x="630" y="983" type="curve" smooth="yes"/>
      <point x="816" y="983"/>
      <point x="920" y="856"/>
      <point x="917" y="582" type="curve" smooth="yes"/>
      <point x="913" y="296"/>
      <point x="774" y="144"/>
      <point x="591" y="144" type="curve" smooth="yes"/>
      <point x="494" y="144"/>
      <point x="423" y="158"/>
      <point x="386" y="184" type="curve"/>
    </contour>
    <contour>
      <point x="641" y="-170" type="move" name="btm"/>
    </contour>
    <contour>
      <point x="743" y="1700" type="move" name="top"/>
    </contour>
  </outline>
</glyph>
<glyph name="g" format="1">
  <advance width="1217"/>
  <unicode hex="0067"/>
  <outline>
    <contour>
      <point x="570" y="384" type="curve" smooth="yes"/>
      <point x="829" y="384"/>
      <point x="1029" y="522"/>
      <point x="1029" y="775" type="curve" smooth="yes"/>
      <point x="1029" y="1040"/>
      <point x="818" y="1161"/>
      <point x="574" y="1156" type="curve" smooth="yes"/>
      <point x="320" y="1151"/>
      <point x="124" y="1028"/>
      <point x="124" y="762" type="curve" smooth="yes"/>
      <point x="124" y="536"/>
      <point x="318" y="384"/>
    </contour>
    <contour>
      <point x="1187" y="973" type="line"/>
      <point x="1187" y="1148" type="line"/>
      <point x="1076" y="1148" type="line" smooth="yes"/>
      <point x="971" y="1148"/>
      <point x="864" y="1100"/>
      <point x="833" y="1061" type="curve"/>
      <point x="906" y="973" type="line"/>
    </contour>
    <contour>
      <point x="575" y="531" type="curve" smooth="yes"/>
      <point x="409" y="531"/>
      <point x="343" y="644"/>
      <point x="343" y="772" type="curve" smooth="yes"/>
      <point x="343" y="963"/>
      <point x="457" y="1007"/>
      <point x="585" y="1007" type="curve" smooth="yes"/>
      <point x="737" y="1007"/>
      <point x="810" y="923"/>
      <point x="810" y="767" type="curve" smooth="yes"/>
      <point x="810" y="586"/>
      <point x="721" y="531"/>
    </contour>
    <contour>
      <point x="585" y="-517" type="curve" smooth="yes"/>
      <point x="888" y="-518"/>
      <point x="1139" y="-374"/>
      <point x="1139" y="-145" type="curve" smooth="yes"/>
      <point x="1139" y="13"/>
      <point x="1066" y="173"/>
      <point x="719" y="173" type="curve" smooth="yes"/>
      <point x="512" y="173" type="line" smooth="yes"/>
      <point x="417" y="173"/>
      <point x="382" y="197"/>
      <point x="382" y="283" type="curve" smooth="yes"/>
      <point x="382" y="338"/>
      <point x="422" y="391"/>
      <point x="472" y="411" type="curve"/>
      <point x="332" y="450" type="line"/>
      <point x="239" y="391"/>
      <point x="183" y="301"/>
      <point x="181" y="223" type="curve" smooth="yes"/>
      <point x="180" y="154"/>
      <point x="201" y="74"/>
      <point x="307" y="35" type="curve" smooth="yes"/>
      <point x="322" y="30"/>
      <point x="336" y="18"/>
      <point x="352" y="15" type="curve" smooth="yes"/>
      <point x="401" y="3"/>
      <point x="463" y="0"/>
      <point x="545" y="0" type="curve" smooth="yes"/>
      <point x="647" y="0" type="line" smooth="yes"/>
      <point x="877" y="0"/>
      <point x="929" y="-70"/>
      <point x="929" y="-193" type="curve" smooth="yes"/>
      <point x="929" y="-307"/>
      <point x="771" y="-366"/>
      <point x="593" y="-366" type="curve" smooth="yes"/>
      <point x="399" y="-366"/>
      <point x="324" y="-294"/>
      <point x="324" y="-155" type="curve" smooth="yes"/>
      <point x="324" y="-34"/>
      <point x="397" y="5"/>
      <point x="443" y="45" type="curve"/>
      <point x="296" y="66" type="line"/>
      <point x="220" y="32"/>
      <point x="110" y="-51"/>
      <point x="110" y="-181" type="curve" smooth="yes"/>
      <point x="110" y="-410"/>
      <point x="295" y="-516"/>
    </contour>
    <contour>
      <point x="597" y="1700" type="move" name="top"/>
    </contour>
  </outline>
</glyph>
<glyph name="k" format="1">
  <advance width="1163"/>
  <unicode hex="006B"/>
  <outline>
    <contour>
      <point x="1098" y="1140" type="line"/>
      <point x="839" y="1140" type="line"/>
      <point x="322" y="571" type="line"/>
      <point x="380" y="532" type="line"/>
      <point x="388" y="751" type="line"/>
      <point x="388" y="1661" type="line"/>
      <point x="168" y="1661" type="line"/>
      <point x="168" y="677" type="line"/>
      <point x="168" y="0" type="line"/>
      <point x="388" y="0" type="line"/>
      <point x="388" y="223" type="line"/>
      <point x="382" y="423" type="line"/>
      <point x="360" y="370" type="line"/>
    </contour>
    <contour>
      <point x="504" y="571" type="line"/>
      <point x="901" y="0" type="line"/>
      <point x="1151" y="0" type="line"/>
      <point x="654" y="711" type="line"/>
    </contour>
    <contour>
      <point x="608" y="-170" type="move" name="btm"/>
    </contour>
    <contour>
      <point x="664" y="1700" type="move" name="top"/>
    </contour>
  </outline>
</glyph>
<glyph name="n" format="1">
  <advance width="1279"/>
  <unicode hex="006E"/>
  <outline>
    <contour>
      <point x="176" y="0" type="line"/>
      <point x="396" y="0" type="line"/>
      <point x="396" y="869" type="line"/>
      <point x="487" y="935"/>
      <point x="601" y="972"/>
      <point x="676" y="975" type="curve" smooth="yes"/>
      <point x="854" y="985"/>
      <point x="889" y="901"/>
      <point x="889" y="711" type="curve" smooth="yes"/>
      <point x="889" y="0" type="line"/>
      <point x="1109" y="0" type="line"/>
      <point x="1109" y="710" type="line" smooth="yes"/>
      <point x="1109" y="1044"/>
      <point x="1016" y="1163"/>
      <point x="770" y="1157" type="curve" smooth="yes"/>
      <point x="621" y="1153"/>
      <point x="458" y="1076"/>
      <point x="373" y="1018" type="curve"/>
      <point x="372" y="1138" type="line"/>
      <point x="176" y="1138" type="line"/>
    </contour>
    <contour>
      <point x="653" y="-170" type="move" name="btm"/>
    </contour>
    <contour>
      <point x="710" y="1700" type="move" name="top"/>
    </contour>
  </outline>
</glyph>
<glyph name="r" format="1">
  <advance width="819"/>
  <unicode hex="0072"/>
  <outline>
    <contour>
      <point x="376" y="858" type="line"/>
      <point x="423" y="906"/>
      <point x="516" y="964"/>
      <point x="637" y="964" type="curve" smooth="yes"/>
      <point x="731" y="964"/>
      <point x="767" y="948"/>
      <point x="787" y="937" type="curve"/>
      <point x="787" y="1143" type="line"/>
      <point x="767" y="1152"/>
      <point x="730" y="1157"/>
      <point x="676" y="1157" type="curve" smooth="yes"/>
      <point x="538" y="1157"/>
      <point x="389" y="1056"/>
      <point x="360" y="1000" type="curve"/>
    </contour>
    <contour>
      <point x="168" y="0" type="line"/>
      <point x="388" y="0" type="line"/>
      <point x="388" y="908" type="line"/>
      <point x="369" y="999" type="line"/>
      <point x="353" y="1138" type="line"/>
      <point x="168" y="1138" type="line"/>
    </contour>
    <contour>
      <point x="272" y="-170" type="move" name="btm"/>
    </contour>
    <contour>
      <point x="490" y="1700" type="move" name="top"/>
    </contour>
  </outline>
</glyph>
<glyph name="s" format="1">
  <advance width="977"/>
  <unicode hex="0073"/>
  <outline>
    <contour>
      <point x="112" y="65" type="line"/>
      <point x="166" y="26"/>
      <point x="319" y="-16"/>
      <point x="475" y="-16" type="curve" smooth="yes"/>
      <point x="722" y="-16"/>
      <point x="877" y="96"/>
      <point x="877" y="303" type="curve" smooth="yes"/>
      <point x="877" y="498"/>
      <point x="696" y="598"/>
      <point x="543" y="660" type="curve" smooth="yes"/>
      <point x="404" y="716"/>
      <point x="319" y="766"/>
      <point x="322" y="872" type="curve" smooth="yes"/>
      <point x="324" y="946"/>
      <point x="398" y="994"/>
      <point x="538" y="994" type="curve" smooth="yes"/>
      <point x="644" y="994"/>
      <point x="749" y="961"/>
      <point x="784" y="931" type="curve"/>
      <point x="820" y="1097" type="line"/>
      <point x="786" y="1116"/>
      <point x="669" y="1156"/>
      <point x="531" y="1156" type="curve" smooth="yes"/>
      <point x="305" y="1156"/>
      <point x="122" y="1058"/>
      <point x="119" y="860" type="curve" smooth="yes"/>
      <point x="117" y="669"/>
      <point x="255" y="566"/>
      <point x="437" y="489" type="curve" smooth="yes"/>
      <point x="567" y="434"/>
      <point x="672" y="380"/>
      <point x="672" y="287" type="curve" smooth="yes"/>
      <point x="672" y="198"/>
      <point x="599" y="146"/>
      <point x="465" y="147" type="curve" smooth="yes"/>
      <point x="320" y="149"/>
      <point x="176" y="207"/>
      <point x="145" y="229" type="curve"/>
    </contour>
    <contour>
      <point x="489" y="-170" type="move" name="btm"/>
    </contour>
    <contour>
      <point x="510" y="1700" type="move" name="top"/>
    </contour>
  </outline>
</glyph>
<glyph name="v" format="1">
  <advance width="1113"/>
  <unicode hex="0076"/>
  <outline>
    <contour>
      <point x="471" y="-16" type="line"/>
      <point x="656" y="-16" type="line"/>
      <point x="1094" y="1140" type="line"/>
      <point x="860" y="1140" type="line"/>
      <point x="643" y="491" type="line"/>
      <point x="536" y="113" type="line"/>
      <point x="599" y="113" type="line"/>
      <point x="482" y="491" type="line"/>
      <point x="256" y="1140" type="line"/>
      <point x="19" y="1140" type="line"/>
    </contour>
  </outline>
</glyph>
<glyph name="y" format="1">
  <advance width="1116"/>
  <unicode hex="0079"/>
  <outline>
    <contour>
      <point x="131" y="-493" type="line"/>
      <point x="143" y="-501"/>
      <point x="213" y="-507"/>
      <point x="243" y="-507" type="curve" smooth="yes"/>
      <point x="274" y="-507"/>
      <point x="321" y="-500"/>
      <point x="351" y="-492" type="curve" smooth="yes"/>
      <point x="496" y="-451"/>
      <point x="619" y="-311"/>
      <point x="709" y="-36" type="curve" smooth="yes"/>
      <point x="1093" y="1140" type="line"/>
      <point x="856" y="1140" type="line"/>
      <point x="640" y="372" type="line"/>
      <point x="557" y="69" type="line"/>
      <point x="626" y="69" type="line"/>
      <point x="531" y="372" type="line"/>
      <point x="279" y="1140" type="line"/>
      <point x="44" y="1140" type="line"/>
      <point x="457" y="0" type="line"/>
      <point x="542" y="0" type="line"/>
      <point x="528" y="28" type="line"/>
      <point x="468" y="-269"/>
      <point x="312" y="-325"/>
      <point x="227" y="-325" type="curve" smooth="yes"/>
      <point x="204" y="-325"/>
      <point x="153" y="-321"/>
      <point x="131" y="-314" type="curve"/>
    </contour>
    <contour>
      <point x="570" y="-170" type="move" name="btm"/>
    </contour>
    <contour>
      <point x="590" y="1700" type="move" name="top"/>
    </contour>
  </outline>
</glyph>
<glyph name="cent" format="1">
  <advance width="1183"/>
  <unicode hex="00A2"/>
  <outline>
    <contour>
      <point x="615" y="1068" type="line"/>
      <point x="765" y="1068" type="line"/>
      <point x="772" y="1377" type="line"/>
      <point x="623" y="1377" type="line"/>
    </contour>
    <contour>
      <point x="581" y="-216" type="line"/>
      <point x="731" y="-216" type="line"/>
      <point x="736" y="93" type="line"/>
      <point x="587" y="93" type="line"/>
    </contour>
    <component base="c" xOffset="60"/>
  </outline>
</glyph>
<glyph name="sterling" format="1">
  <advance width="1532"/>
  <unicode hex="00A3"/>
  <outline>
    <contour>
      <point x="146" y="80" type="curve" smooth="yes"/>
      <point x="146" y="30"/>
      <point x="209" y="-2"/>
      <point x="254" y="-2" type="curve" smooth="yes"/>
      <point x="333" y="-2"/>
      <point x="414" y="48"/>
      <point x="454" y="92" type="curve"/>
      <point x="547" y="102"/>
      <point x="685" y="-20"/>
      <point x="963" y="-20" type="curve" smooth="yes"/>
      <point x="1242" y="-20"/>
      <point x="1393" y="85"/>
      <point x="1393" y="317" type="curve" smooth="yes"/>
      <point x="1393" y="441"/>
      <point x="1313" y="536"/>
      <point x="1265" y="563" type="curve"/>
      <point x="1109" y="483" type="line"/>
      <point x="1141" y="473"/>
      <point x="1185" y="409"/>
      <point x="1185" y="333" type="curve" smooth="yes"/>
      <point x="1185" y="229"/>
      <point x="1133" y="137"/>
      <point x="937" y="137" type="curve" smooth="yes"/>
      <point x="760" y="137"/>
      <point x="705" y="192"/>
      <point x="580" y="213" type="curve"/>
      <point x="654" y="293"/>
      <point x="659" y="452"/>
      <point x="657" y="721" type="curve" smooth="yes"/>
      <point x="655" y="1015" type="line" smooth="yes"/>
      <point x="653" y="1316"/>
      <point x="774" y="1372"/>
      <point x="886" y="1372" type="curve" smooth="yes"/>
      <point x="1009" y="1372"/>
      <point x="1077" y="1329"/>
      <point x="1133" y="1281" type="curve"/>
      <point x="1237" y="1439" type="line"/>
      <point x="1177" y="1490"/>
      <point x="1075" y="1538"/>
      <point x="909" y="1538" type="curve" smooth="yes"/>
      <point x="611" y="1538"/>
      <point x="436" y="1342"/>
      <point x="436" y="1045" type="curve" smooth="yes"/>
      <point x="436" y="468" type="line" smooth="yes"/>
      <point x="436" y="394"/>
      <point x="433" y="314"/>
      <point x="408" y="258" type="curve"/>
      <point x="229" y="249"/>
      <point x="146" y="173"/>
    </contour>
    <contour>
      <point x="255" y="756" type="line"/>
      <point x="1008" y="756" type="line"/>
      <point x="1008" y="908" type="line"/>
      <point x="255" y="908" type="line"/>
    </contour>
  </outline>
</glyph>
<glyph name="yen" format="1">
  <advance width="1532"/>
  <unicode hex="00A5"/>
  <outline>
    <contour>
      <point x="879" y="0" type="line"/>
      <point x="879" y="820" type="line"/>
      <point x="832" y="672" type="line"/>
      <point x="1377" y="1522" type="line"/>
      <point x="1144" y="1522" type="line"/>
      <point x="832" y="1004" type="line"/>
      <point x="748" y="811" type="line"/>
      <point x="796" y="811" type="line"/>
      <point x="706" y="997" type="line"/>
      <point x="402" y="1522" type="line"/>
      <point x="164" y="1522" type="line"/>
      <point x="709" y="653" type="line"/>
      <point x="659" y="820" type="line"/>
      <point x="659" y="0" type="line"/>
    </contour>
    <contour>
      <point x="274" y="667" type="line"/>
      <point x="1239" y="667" type="line"/>
      <point x="1239" y="810" type="line"/>
      <point x="274" y="810" type="line"/>
    </contour>
    <contour>
      <point x="274" y="293" type="line"/>
      <point x="1239" y="293" type="line"/>
      <point x="1239" y="436" type="line"/>
      <point x="274" y="436" type="line"/>
    </contour>
  </outline>
</glyph>
<glyph name="brokenbar" format="1">
  <advance width="855"/>
  <unicode hex="00A6"/>
  <outline>
    <contour>
      <point x="326" y="950" type="line"/>
      <point x="529" y="950" type="line"/>
      <point x="529" y="1780" type="line"/>
      <point x="326" y="1780" type="line"/>
    </contour>
    <contour>
      <point x="326" y="-186" type="line"/>
      <point x="529" y="-186" type="line"/>
      <point x="529" y="641" type="line"/>
      <point x="326" y="641" type="line"/>
    </contour>
  </outline>
</glyph>
<glyph name="section" format="1">
  <advance width="1358"/>
  <unicode hex="00A7"/>
  <outline>
    <contour>
      <point x="226" y="1332" type="curve" smooth="yes"/>
      <point x="226" y="910"/>
      <point x="945" y="953"/>
      <point x="945" y="617" type="curve" smooth="yes"/>
      <point x="945" y="533"/>
      <point x="891" y="405"/>
      <point x="852" y="352" type="curve"/>
      <point x="953" y="291" type="line"/>
      <point x="1062" y="378"/>
      <point x="1144" y="508"/>
      <point x="1144" y="653" type="curve" smooth="yes"/>
      <point x="1144" y="1072"/>
      <point x="426" y="1072"/>
      <point x="426" y="1356" type="curve" smooth="yes"/>
      <point x="426" y="1466"/>
      <point x="551" y="1508"/>
      <point x="687" y="1509" type="curve" smooth="yes"/>
      <point x="867" y="1510"/>
      <point x="969" y="1465"/>
      <point x="1015" y="1434" type="curve"/>
      <point x="1057" y="1600" type="line"/>
      <point x="999" y="1634"/>
      <point x="878" y="1673"/>
      <point x="691" y="1673" type="curve" smooth="yes"/>
      <point x="485" y="1673"/>
      <point x="226" y="1599"/>
    </contour>
    <contour>
      <point x="1132" y="150" type="curve" smooth="yes"/>
      <point x="1132" y="550"/>
      <point x="416" y="483"/>
      <point x="416" y="803" type="curve" smooth="yes"/>
      <point x="416" y="887"/>
      <point x="470" y="1007"/>
      <point x="509" y="1060" type="curve"/>
      <point x="404" y="1121" type="line"/>
      <point x="296" y="1036"/>
      <point x="215" y="909"/>
      <point x="215" y="767" type="curve" smooth="yes"/>
      <point x="215" y="361"/>
      <point x="933" y="386"/>
      <point x="933" y="130" type="curve" smooth="yes"/>
      <point x="933" y="13"/>
      <point x="795" y="-28"/>
      <point x="645" y="-29" type="curve" smooth="yes"/>
      <point x="462" y="-30"/>
      <point x="321" y="27"/>
      <point x="267" y="66" type="curve"/>
      <point x="225" y="-100" type="line"/>
      <point x="287" y="-143"/>
      <point x="454" y="-193"/>
      <point x="641" y="-193" type="curve" smooth="yes"/>
      <point x="861" y="-193"/>
      <point x="1132" y="-115"/>
    </contour>
  </outline>
</glyph>
<glyph name="dieresis" format="1">
  <advance width="863"/>
  <unicode hex="00A8"/>
  <outline>
    <contour>
      <point x="191" y="1363" type="curve" smooth="yes"/>
      <point x="271" y="1363"/>
      <point x="345" y="1424"/>
      <point x="345" y="1512" type="curve" smooth="yes"/>
      <point x="345" y="1584"/>
      <point x="306" y="1642"/>
      <point x="215" y="1642" type="curve" smooth="yes"/>
      <point x="139" y="1642"/>
      <point x="60" y="1576"/>
      <point x="60" y="1493" type="curve" smooth="yes"/>
      <point x="60" y="1413"/>
      <point x="119" y="1363"/>
    </contour>
    <contour>
      <point x="649" y="1363" type="curve" smooth="yes"/>
      <point x="729" y="1363"/>
      <point x="803" y="1424"/>
      <point x="803" y="1512" type="curve" smooth="yes"/>
      <point x="803" y="1584"/>
      <point x="763" y="1642"/>
      <point x="673" y="1642" type="curve" smooth="yes"/>
      <point x="596" y="1642"/>
      <point x="518" y="1576"/>
      <point x="518" y="1493" type="curve" smooth="yes"/>
      <point x="518" y="1413"/>
      <point x="577" y="1363"/>
    </contour>
    <contour>
      <point x="431" y="1700" type="move" name="_top"/>
    </contour>
  </outline>
</glyph>
<glyph name="ordfeminine" format="1">
  <advance width="1034"/>
  <unicode hex="00AA"/>
  <outline>
    <contour>
      <point x="431" y="677" type="curve" smooth="yes"/>
      <point x="546" y="677"/>
      <point x="643" y="726"/>
      <point x="689" y="773" type="curve"/>
      <point x="721" y="834" type="line"/>
      <point x="677" y="888" type="line"/>
      <point x="657" y="869"/>
      <point x="566" y="824"/>
      <point x="467" y="824" type="curve" smooth="yes"/>
      <point x="385" y="824"/>
      <point x="320" y="860"/>
      <point x="320" y="939" type="curve" smooth="yes"/>
      <point x="320" y="1011"/>
      <point x="349" y="1047"/>
      <point x="408" y="1076" type="curve" smooth="yes"/>
      <point x="481" y="1112"/>
      <point x="582" y="1110"/>
      <point x="678" y="1110" type="curve"/>
      <point x="721" y="1178" type="line"/>
      <point x="678" y="1232" type="line"/>
      <point x="567" y="1232"/>
      <point x="423" y="1220"/>
      <point x="306" y="1176" type="curve" smooth="yes"/>
      <point x="199" y="1134"/>
      <point x="126" y="1061"/>
      <point x="126" y="925" type="curve" smooth="yes"/>
      <point x="126" y="765"/>
      <point x="251" y="677"/>
    </contour>
    <contour>
      <point x="876" y="687" type="line"/>
      <point x="876" y="1166" type="line"/>
      <point x="876" y="1302" type="line" smooth="yes"/>
      <point x="876" y="1528"/>
      <point x="742" y="1599"/>
      <point x="529" y="1599" type="curve" smooth="yes"/>
      <point x="374" y="1599"/>
      <point x="189" y="1520"/>
      <point x="152" y="1485" type="curve"/>
      <point x="208" y="1364" type="line"/>
      <point x="251" y="1394"/>
      <point x="396" y="1444"/>
      <point x="485" y="1444" type="curve" smooth="yes"/>
      <point x="610" y="1444"/>
      <point x="678" y="1432"/>
      <point x="678" y="1296" type="curve" smooth="yes"/>
      <point x="678" y="823" type="line"/>
      <point x="689" y="823" type="line"/>
      <point x="689" y="759" type="line" smooth="yes"/>
      <point x="689" y="681"/>
      <point x="732" y="687"/>
      <point x="805" y="687" type="curve" smooth="yes"/>
    </contour>
  </outline>
</glyph>
<glyph name="registered" format="1">
  <advance width="2129"/>
  <unicode hex="00AE"/>
  <outline>
    <contour>
      <point x="194" y="963" type="curve" smooth="yes"/>
      <point x="194" y="476"/>
      <point x="578" y="82"/>
      <point x="1064" y="82" type="curve" smooth="yes"/>
      <point x="1550" y="82"/>
      <point x="1935" y="476"/>
      <point x="1935" y="963" type="curve" smooth="yes"/>
      <point x="1935" y="1449"/>
      <point x="1550" y="1840"/>
      <point x="1064" y="1840" type="curve" smooth="yes"/>
      <point x="578" y="1840"/>
      <point x="194" y="1449"/>
    </contour>
    <contour>
      <point x="336" y="963" type="curve" smooth="yes"/>
      <point x="336" y="1376"/>
      <point x="645" y="1714"/>
      <point x="1064" y="1714" type="curve" smooth="yes"/>
      <point x="1483" y="1714"/>
      <point x="1792" y="1376"/>
      <point x="1792" y="963" type="curve" smooth="yes"/>
      <point x="1792" y="549"/>
      <point x="1483" y="211"/>
      <point x="1064" y="211" type="curve" smooth="yes"/>
      <point x="645" y="211"/>
      <point x="336" y="549"/>
    </contour>
    <contour>
      <point x="738" y="479" type="line"/>
      <point x="915" y="479" type="line"/>
      <point x="915" y="848" type="line"/>
      <point x="964" y="848"/>
      <point x="1013" y="848"/>
      <point x="1039" y="849" type="curve"/>
      <point x="1129" y="825"/>
      <point x="1170" y="710"/>
      <point x="1212" y="618" type="curve" smooth="yes"/>
      <point x="1237" y="565"/>
      <point x="1258" y="522"/>
      <point x="1291" y="480" type="curve"/>
      <point x="1495" y="479" type="line"/>
      <point x="1435" y="570"/>
      <point x="1414" y="599"/>
      <point x="1392" y="639" type="curve" smooth="yes"/>
      <point x="1347" y="723"/>
      <point x="1309" y="822"/>
      <point x="1239" y="874" type="curve"/>
      <point x="1381" y="917"/>
      <point x="1432" y="1028"/>
      <point x="1432" y="1174" type="curve" smooth="yes"/>
      <point x="1432" y="1323"/>
      <point x="1326" y="1448"/>
      <point x="1073" y="1448" type="curve" smooth="yes"/>
      <point x="981" y="1448"/>
      <point x="886" y="1441"/>
      <point x="815" y="1441" type="curve" smooth="yes"/>
      <point x="738" y="1441" type="line"/>
    </contour>
    <contour>
      <point x="915" y="980" type="curve"/>
      <point x="915" y="1305" type="line"/>
      <point x="952" y="1314"/>
      <point x="981" y="1315"/>
      <point x="1024" y="1316" type="curve" smooth="yes"/>
      <point x="1205" y="1321"/>
      <point x="1248" y="1253"/>
      <point x="1248" y="1151" type="curve" smooth="yes"/>
      <point x="1248" y="1022"/>
      <point x="1179" y="976"/>
      <point x="1045" y="976" type="curve" smooth="yes"/>
      <point x="1011" y="976"/>
      <point x="945" y="977"/>
    </contour>
  </outline>
</glyph>
<glyph name="macron" format="1">
  <advance width="647"/>
  <unicode hex="00AF"/>
  <outline>
    <contour>
      <point x="50" y="1425" type="line"/>
      <point x="597" y="1425" type="line"/>
      <point x="597" y="1588" type="line"/>
      <point x="50" y="1588" type="line"/>
    </contour>
    <contour>
      <point x="322" y="1700" type="move" name="_top"/>
    </contour>
  </outline>
</glyph>
<glyph name="twosuperior" format="1">
  <advance width="1194"/>
  <unicode hex="00B2"/>
  <outline>
    <contour>
      <point x="248" y="665" type="line"/>
      <point x="996" y="665" type="line"/>
      <point x="996" y="830" type="line"/>
      <point x="392" y="824" type="line"/>
      <point x="395" y="743" type="line"/>
      <point x="699" y="901"/>
      <point x="941" y="1125"/>
      <point x="941" y="1382" type="curve" smooth="yes"/>
      <point x="941" y="1531"/>
      <point x="833" y="1686"/>
      <point x="579" y="1686" type="curve" smooth="yes"/>
      <point x="390" y="1686"/>
      <point x="238" y="1586"/>
      <point x="175" y="1494" type="curve"/>
      <point x="266" y="1385" type="line"/>
      <point x="344" y="1476"/>
      <point x="430" y="1527"/>
      <point x="541" y="1527" type="curve" smooth="yes"/>
      <point x="651" y="1527"/>
      <point x="727" y="1472"/>
      <point x="727" y="1344" type="curve" smooth="yes"/>
      <point x="727" y="1109"/>
      <point x="352" y="853"/>
      <point x="205" y="775" type="curve"/>
    </contour>
  </outline>
</glyph>
<glyph name="threesuperior" format="1">
  <advance width="1194"/>
  <unicode hex="00B3"/>
  <outline>
    <contour>
      <point x="329" y="606" type="line"/>
      <point x="387" y="594"/>
      <point x="463" y="578"/>
      <point x="538" y="578" type="curve" smooth="yes"/>
      <point x="848" y="578"/>
      <point x="981" y="734"/>
      <point x="981" y="927" type="curve" smooth="yes"/>
      <point x="981" y="1049"/>
      <point x="890" y="1175"/>
      <point x="704" y="1183" type="curve"/>
      <point x="844" y="1244"/>
      <point x="912" y="1338"/>
      <point x="912" y="1453" type="curve" smooth="yes"/>
      <point x="912" y="1582"/>
      <point x="807" y="1691"/>
      <point x="575" y="1691" type="curve" smooth="yes"/>
      <point x="513" y="1691"/>
      <point x="352" y="1660"/>
      <point x="262" y="1586" type="curve"/>
      <point x="324" y="1467" type="line"/>
      <point x="393" y="1516"/>
      <point x="489" y="1545"/>
      <point x="553" y="1546" type="curve" smooth="yes"/>
      <point x="639" y="1547"/>
      <point x="708" y="1509"/>
      <point x="711" y="1429" type="curve" smooth="yes"/>
      <point x="715" y="1345"/>
      <point x="663" y="1289"/>
      <point x="585" y="1254" type="curve"/>
      <point x="543" y="1235"/>
      <point x="473" y="1209"/>
      <point x="430" y="1201" type="curve"/>
      <point x="467" y="1073" type="line"/>
      <point x="555" y="1101" type="line"/>
      <point x="682" y="1094"/>
      <point x="770" y="1029"/>
      <point x="770" y="921" type="curve" smooth="yes"/>
      <point x="770" y="793"/>
      <point x="693" y="729"/>
      <point x="518" y="727" type="curve" smooth="yes"/>
      <point x="422" y="726"/>
      <point x="385" y="734"/>
      <point x="315" y="748" type="curve"/>
    </contour>
  </outline>
</glyph>
<glyph name="mu" format="1">
  <advance width="1360"/>
  <unicode hex="00B5"/>
  <outline>
    <contour>
      <point x="210" y="-371" type="line"/>
      <point x="415" y="-371" type="line"/>
      <point x="378" y="161" type="line"/>
      <point x="345" y="151" type="line"/>
      <point x="407" y="22"/>
      <point x="499" y="-16"/>
      <point x="655" y="-16" type="curve" smooth="yes"/>
      <point x="800" y="-16"/>
      <point x="875" y="67"/>
      <point x="923" y="120" type="curve"/>
      <point x="918" y="17"/>
      <point x="971" y="-18"/>
      <point x="1043" y="-18" type="curve" smooth="yes"/>
      <point x="1151" y="-18"/>
      <point x="1242" y="66"/>
      <point x="1256" y="87" type="curve"/>
      <point x="1225" y="185" type="line"/>
      <point x="1188" y="163"/>
      <point x="1160" y="158"/>
      <point x="1147" y="158" type="curve" smooth="yes"/>
      <point x="1125" y="158"/>
      <point x="1113" y="172"/>
      <point x="1113" y="234" type="curve" smooth="yes"/>
      <point x="1113" y="1140" type="line"/>
      <point x="893" y="1140" type="line"/>
      <point x="893" y="245" type="line"/>
      <point x="841" y="207"/>
      <point x="756" y="157"/>
      <point x="675" y="157" type="curve" smooth="yes"/>
      <point x="509" y="157"/>
      <point x="429" y="217"/>
      <point x="429" y="399" type="curve" smooth="yes"/>
      <point x="429" y="1140" type="line"/>
      <point x="210" y="1140" type="line"/>
    </contour>
  </outline>
</glyph>
<glyph name="paragraph" format="1">
  <advance width="1320"/>
  <unicode hex="00B6"/>
  <outline>
    <contour>
      <point x="517" y="0" type="line"/>
      <point x="701" y="0" type="line"/>
      <point x="701" y="1548" type="line"/>
      <point x="942" y="1548" type="line"/>
      <point x="942" y="0" type="line"/>
      <point x="1126" y="0" type="line"/>
      <point x="1126" y="1691" type="line"/>
      <point x="1010" y="1694"/>
      <point x="752" y="1711"/>
      <point x="657" y="1711" type="curve" smooth="yes"/>
      <point x="280" y="1711"/>
      <point x="83" y="1527"/>
      <point x="83" y="1248" type="curve" smooth="yes"/>
      <point x="83" y="915"/>
      <point x="236" y="777"/>
      <point x="517" y="777" type="curve"/>
    </contour>
  </outline>
</glyph>
<glyph name="cedilla" format="1">
  <advance width="485"/>
  <unicode hex="00B8"/>
  <outline>
    <contour>
      <point x="47" y="-436" type="line"/>
      <point x="70" y="-452"/>
      <point x="140" y="-464"/>
      <point x="194" y="-464" type="curve" smooth="yes"/>
      <point x="310" y="-464"/>
      <point x="420" y="-398"/>
      <point x="434" y="-229" type="curve" smooth="yes"/>
      <point x="442" y="-118"/>
      <point x="424" y="-19"/>
      <point x="377" y="30" type="curve"/>
      <point x="334" y="34" type="line"/>
      <point x="251" y="30" type="line"/>
      <point x="270" y="-9"/>
      <point x="284" y="-61"/>
      <point x="271" y="-158" type="curve" smooth="yes"/>
      <point x="264" y="-266"/>
      <point x="209" y="-308"/>
      <point x="144" y="-308" type="curve" smooth="yes"/>
      <point x="113" y="-308"/>
      <point x="79" y="-305"/>
      <point x="62" y="-294" type="curve"/>
    </contour>
    <contour>
      <point x="329" y="-170" type="move" name="_btm"/>
    </contour>
  </outline>
</glyph>
<glyph name="AE" format="1">
  <advance width="1860"/>
  <unicode hex="00C6"/>
  <outline>
    <contour>
      <point x="-73" y="0" type="line"/>
      <point x="173" y="0" type="line"/>
      <point x="844" y="1411" type="line"/>
      <point x="652" y="1522" type="line"/>
    </contour>
    <contour>
      <point x="837" y="1522" type="line"/>
      <point x="652" y="1522" type="line"/>
      <point x="683" y="1376" type="line"/>
      <point x="923" y="1376" type="line"/>
    </contour>
    <contour>
      <point x="231" y="385" type="line"/>
      <point x="1013" y="385" type="line"/>
      <point x="971" y="551" type="line"/>
      <point x="273" y="551" type="line"/>
    </contour>
    <contour>
      <point x="837" y="0" type="line"/>
      <point x="1786" y="0" type="line"/>
      <point x="1786" y="175" type="line"/>
      <point x="1060" y="175" type="line"/>
      <point x="1060" y="698" type="line"/>
      <point x="1539" y="698" type="line"/>
      <point x="1539" y="870" type="line"/>
      <point x="1060" y="870" type="line"/>
      <point x="1060" y="1350" type="line"/>
      <point x="1713" y="1350" type="line"/>
      <point x="1713" y="1522" type="line"/>
      <point x="837" y="1522" type="line"/>
    </contour>
    <contour>
      <point x="1382" y="-170" type="move" name="btm"/>
    </contour>
    <contour>
      <point x="1020" y="1700" type="move" name="top"/>
    </contour>
  </outline>
</glyph>
<glyph name="multiply" format="1">
  <advance width="1370"/>
  <unicode hex="00D7"/>
  <outline>
    <contour>
      <point x="234" y="439" type="line"/>
      <point x="364" y="311" type="line"/>
      <point x="686" y="654" type="line"/>
      <point x="1008" y="311" type="line"/>
      <point x="1138" y="439" type="line"/>
      <point x="800" y="777" type="line"/>
      <point x="1138" y="1119" type="line"/>
      <point x="1008" y="1247" type="line"/>
      <point x="686" y="893" type="line"/>
      <point x="364" y="1247" type="line"/>
      <point x="234" y="1119" type="line"/>
      <point x="572" y="774" type="line"/>
    </contour>
  </outline>
</glyph>
<glyph name="Oslash" format="1">
  <advance width="1569"/>
  <unicode hex="00D8"/>
  <outline>
    <contour>
      <point x="505" y="-200" type="line"/>
      <point x="1190" y="1702" type="line"/>
      <point x="1065" y="1738" type="line"/>
      <point x="380" y="-164" type="line"/>
    </contour>
    <component base="O"/>
  </outline>
</glyph>
<glyph name="germandbls" format="1">
  <advance width="1268"/>
  <unicode hex="00DF"/>
  <outline>
    <contour>
      <point x="174" y="0" type="line"/>
      <point x="394" y="0" type="line"/>
      <point x="394" y="948" type="line" smooth="yes"/>
      <point x="394" y="1314"/>
      <point x="515" y="1423"/>
      <point x="682" y="1423" type="curve" smooth="yes"/>
      <point x="808" y="1423"/>
      <point x="879" y="1375"/>
      <point x="879" y="1275" type="curve" smooth="yes"/>
      <point x="879" y="1100"/>
      <point x="670" y="1039"/>
      <point x="670" y="851" type="curve" smooth="yes"/>
      <point x="670" y="535"/>
      <point x="1011" y="510"/>
      <point x="1013" y="289" type="curve" smooth="yes"/>
      <point x="1013" y="175"/>
      <point x="928" y="138"/>
      <point x="847" y="138" type="curve" smooth="yes"/>
      <point x="724" y="138"/>
      <point x="645" y="169"/>
      <point x="608" y="190" type="curve"/>
      <point x="608" y="17" type="line"/>
      <point x="647" y="0"/>
      <point x="738" y="-16"/>
      <point x="839" y="-16" type="curve" smooth="yes"/>
      <point x="1034" y="-16"/>
      <point x="1236" y="70"/>
      <point x="1236" y="313" type="curve" smooth="yes"/>
      <point x="1236" y="645"/>
      <point x="873" y="671"/>
      <point x="873" y="877" type="curve" smooth="yes"/>
      <point x="873" y="1014"/>
      <point x="1097" y="1081"/>
      <point x="1097" y="1303" type="curve" smooth="yes"/>
      <point x="1097" y="1482"/>
      <point x="927" y="1579"/>
      <point x="719" y="1579" type="curve" smooth="yes"/>
      <point x="416" y="1579"/>
      <point x="174" y="1397"/>
      <point x="174" y="966" type="curve" smooth="yes"/>
    </contour>
    <contour>
      <point x="36" y="974" type="line"/>
      <point x="184" y="974" type="line"/>
      <point x="239" y="1042" type="line"/>
      <point x="207" y="1147" type="line"/>
      <point x="36" y="1103" type="line"/>
    </contour>
  </outline>
</glyph>
<glyph name="ae" format="1">
  <advance width="1780"/>
  <unicode hex="00E6"/>
  <outline>
    <contour>
      <point x="1259" y="-16" type="curve" smooth="yes"/>
      <point x="1397" y="-16"/>
      <point x="1572" y="25"/>
      <point x="1647" y="86" type="curve"/>
      <point x="1605" y="212" type="line"/>
      <point x="1549" y="179"/>
      <point x="1392" y="151"/>
      <point x="1316" y="151" type="curve" smooth="yes"/>
      <point x="1130" y="151"/>
      <point x="984" y="226"/>
      <point x="971" y="502" type="curve"/>
      <point x="958" y="877"/>
      <point x="1087" y="1000"/>
      <point x="1251" y="1000" type="curve" smooth="yes"/>
      <point x="1451" y="1000"/>
      <point x="1487" y="831"/>
      <point x="1477" y="668" type="curve"/>
      <point x="906" y="668" type="line"/>
      <point x="886" y="522" type="line"/>
      <point x="1672" y="522" type="line"/>
      <point x="1683" y="573"/>
      <point x="1683" y="640"/>
      <point x="1683" y="726" type="curve"/>
      <point x="1674" y="1011"/>
      <point x="1491" y="1160"/>
      <point x="1264" y="1156" type="curve" smooth="yes"/>
      <point x="929" y="1150"/>
      <point x="754" y="904"/>
      <point x="754" y="572" type="curve" smooth="yes"/>
      <point x="754" y="185"/>
      <point x="936" y="-16"/>
    </contour>
    <contour>
      <point x="94" y="305" type="curve" smooth="yes"/>
      <point x="94" y="105"/>
      <point x="247" y="-16"/>
      <point x="449" y="-16" type="curve" smooth="yes"/>
      <point x="623" y="-16"/>
      <point x="780" y="47"/>
      <point x="888" y="195" type="curve"/>
      <point x="854" y="258" type="line"/>
      <point x="810" y="294" type="line"/>
      <point x="763" y="209"/>
      <point x="618" y="148"/>
      <point x="504" y="148" type="curve" smooth="yes"/>
      <point x="372" y="148"/>
      <point x="315" y="208"/>
      <point x="315" y="324" type="curve" smooth="yes"/>
      <point x="315" y="412"/>
      <point x="364" y="458"/>
      <point x="438" y="493" type="curve" smooth="yes"/>
      <point x="519" y="532"/>
      <point x="642" y="548"/>
      <point x="753" y="548" type="curve"/>
      <point x="799" y="627" type="line"/>
      <point x="751" y="688" type="line"/>
      <point x="605" y="688"/>
      <point x="447" y="669"/>
      <point x="316" y="614" type="curve" smooth="yes"/>
      <point x="187" y="558"/>
      <point x="94" y="453"/>
    </contour>
    <contour>
      <point x="204" y="905" type="line"/>
      <point x="263" y="942"/>
      <point x="427" y="991"/>
      <point x="527" y="991" type="curve" smooth="yes"/>
      <point x="678" y="991"/>
      <point x="751" y="966"/>
      <point x="751" y="803" type="curve" smooth="yes"/>
      <point x="751" y="593" type="line"/>
      <point x="949" y="594" type="line"/>
      <point x="949" y="794" type="line" smooth="yes"/>
      <point x="949" y="1093"/>
      <point x="811" y="1157"/>
      <point x="581" y="1157" type="curve" smooth="yes"/>
      <point x="405" y="1157"/>
      <point x="194" y="1078"/>
      <point x="150" y="1052" type="curve"/>
    </contour>
    <contour>
      <point x="904" y="1700" type="move" name="top"/>
    </contour>
  </outline>
</glyph>
<glyph name="idieresis" format="1">
  <advance width="606"/>
  <unicode hex="00EF"/>
  <outline>
    <contour>
      <point x="75" y="1363" type="curve" smooth="yes"/>
      <point x="155" y="1363"/>
      <point x="229" y="1424"/>
      <point x="229" y="1512" type="curve" smooth="yes"/>
      <point x="229" y="1584"/>
      <point x="190" y="1642"/>
      <point x="99" y="1642" type="curve" smooth="yes"/>
      <point x="23" y="1642"/>
      <point x="-56" y="1576"/>
      <point x="-56" y="1493" type="curve" smooth="yes"/>
      <point x="-56" y="1413"/>
      <point x="3" y="1363"/>
    </contour>
    <contour>
      <point x="509" y="1363" type="curve" smooth="yes"/>
      <point x="589" y="1363"/>
      <point x="663" y="1424"/>
      <point x="663" y="1512" type="curve" smooth="yes"/>
      <point x="663" y="1584"/>
      <point x="623" y="1642"/>
      <point x="533" y="1642" type="curve" smooth="yes"/>
      <point x="456" y="1642"/>
      <point x="378" y="1576"/>
      <point x="378" y="1493" type="curve" smooth="yes"/>
      <point x="378" y="1413"/>
      <point x="437" y="1363"/>
    </contour>
    <component base="idotless"/>
  </outline>
</glyph>
<glyph name="divide" format="1">
  <advance width="1393"/>
  <unicode hex="00F7"/>
  <outline>
    <contour>
      <point x="692" y="1029" type="curve" smooth="yes"/>
      <point x="777" y="1029"/>
      <point x="857" y="1095"/>
      <point x="857" y="1189" type="curve" smooth="yes"/>
      <point x="857" y="1267"/>
      <point x="810" y="1329"/>
      <point x="715" y="1329" type="curve" smooth="yes"/>
      <point x="633" y="1329"/>
      <point x="551" y="1258"/>
      <point x="551" y="1168" type="curve" smooth="yes"/>
      <point x="551" y="1083"/>
      <point x="616" y="1029"/>
    </contour>
    <contour>
      <point x="691" y="225" type="curve" smooth="yes"/>
      <point x="776" y="225"/>
      <point x="856" y="290"/>
      <point x="856" y="385" type="curve" smooth="yes"/>
      <point x="856" y="462"/>
      <point x="809" y="524"/>
      <point x="714" y="524" type="curve" smooth="yes"/>
      <point x="632" y="524"/>
      <point x="550" y="453"/>
      <point x="550" y="363" type="curve" smooth="yes"/>
      <point x="550" y="279"/>
      <point x="615" y="225"/>
    </contour>
    <contour>
      <point x="229" y="688" type="line"/>
      <point x="1164" y="688" type="line"/>
      <point x="1164" y="858" type="line"/>
      <point x="229" y="858" type="line"/>
    </contour>
  </outline>
</glyph>
<glyph name="oslash" format="1">
  <advance width="1213"/>
  <unicode hex="00F8"/>
  <outline>
    <contour>
      <point x="289" y="-164" type="line"/>
      <point x="414" y="-200" type="line"/>
      <point x="925" y="1306" type="line"/>
      <point x="800" y="1342" type="line"/>
    </contour>
    <contour>
      <point x="596" y="-16" type="curve" smooth="yes"/>
      <point x="890" y="-16"/>
      <point x="1111" y="180"/>
      <point x="1117" y="546" type="curve" smooth="yes"/>
      <point x="1121" y="871"/>
      <point x="982" y="1156"/>
      <point x="616" y="1156" type="curve" smooth="yes"/>
      <point x="323" y="1156"/>
      <point x="101" y="960"/>
      <point x="96" y="594" type="curve"/>
      <point x="92" y="269"/>
      <point x="231" y="-16"/>
    </contour>
    <contour>
      <point x="602" y="140" type="curve" smooth="yes"/>
      <point x="408" y="144"/>
      <point x="319" y="347"/>
      <point x="319" y="591" type="curve" smooth="yes"/>
      <point x="319" y="854"/>
      <point x="419" y="1002"/>
      <point x="611" y="998" type="curve"/>
      <point x="807" y="995"/>
      <point x="894" y="800"/>
      <point x="894" y="556" type="curve" smooth="yes"/>
      <point x="894" y="292"/>
      <point x="795" y="136"/>
    </contour>
  </outline>
</glyph>
<glyph name="Aogonek" format="1">
  <advance width="1407"/>
  <unicode hex="0104"/>
  <outline>
    <contour>
      <point x="911" y="-302" type="curve"/>
      <point x="913" y="-439"/>
      <point x="1017" y="-512"/>
      <point x="1157" y="-512" type="curve" smooth="yes"/>
      <point x="1241" y="-512"/>
      <point x="1337" y="-496"/>
      <point x="1394" y="-453" type="curve"/>
      <point x="1394" y="-335" type="line"/>
      <point x="1350" y="-352"/>
      <point x="1300" y="-364"/>
      <point x="1255" y="-364" type="curve" smooth="yes"/>
      <point x="1185" y="-364"/>
      <point x="1129" y="-345"/>
      <point x="1127" y="-259" type="curve"/>
      <point x="1125" y="-162"/>
      <point x="1242" y="-55"/>
      <point x="1368" y="11" type="curve"/>
      <point x="1337" y="28" type="line"/>
      <point x="1187" y="5" type="line"/>
      <point x="1065" y="-55"/>
      <point x="909" y="-170"/>
    </contour>
    <component base="A"/>
  </outline>
</glyph>
<glyph name="aogonek" format="1">
  <advance width="1131"/>
  <unicode hex="0105"/>
  <outline>
    <contour>
      <point x="559" y="-302" type="curve" smooth="yes"/>
      <point x="560" y="-439"/>
      <point x="665" y="-512"/>
      <point x="805" y="-512" type="curve" smooth="yes"/>
      <point x="889" y="-512"/>
      <point x="985" y="-496"/>
      <point x="1042" y="-453" type="curve"/>
      <point x="1042" y="-335" type="line"/>
      <point x="998" y="-352"/>
      <point x="948" y="-364"/>
      <point x="903" y="-364" type="curve" smooth="yes"/>
      <point x="833" y="-364"/>
      <point x="777" y="-345"/>
      <point x="775" y="-259" type="curve" smooth="yes"/>
      <point x="773" y="-162"/>
      <point x="860" y="-75"/>
      <point x="966" y="-9" type="curve"/>
      <point x="935" y="8" type="line"/>
      <point x="805" y="5" type="line"/>
      <point x="683" y="-55"/>
      <point x="556" y="-180"/>
    </contour>
    <component base="a"/>
  </outline>
</glyph>
<glyph name="Dcroat" format="1">
  <advance width="1472"/>
  <unicode hex="0110"/>
  <outline>
    <contour>
      <point x="66" y="720" type="line"/>
      <point x="812" y="720" type="line"/>
      <point x="812" y="869" type="line"/>
      <point x="66" y="869" type="line"/>
    </contour>
    <component base="D"/>
  </outline>
</glyph>
<glyph name="dcroat" format="1">
  <advance width="1237"/>
  <unicode hex="0111"/>
  <outline>
    <contour>
      <point x="581" y="1306" type="line"/>
      <point x="1212" y="1306" type="line"/>
      <point x="1212" y="1447" type="line"/>
      <point x="581" y="1447" type="line"/>
    </contour>
    <component base="d"/>
  </outline>
</glyph>
<glyph name="eogonek" format="1">
  <advance width="1123"/>
  <unicode hex="0119"/>
  <outline>
    <contour>
      <point x="519" y="-302" type="curve"/>
      <point x="520" y="-439"/>
      <point x="625" y="-512"/>
      <point x="765" y="-512" type="curve" smooth="yes"/>
      <point x="849" y="-512"/>
      <point x="945" y="-496"/>
      <point x="1002" y="-453" type="curve"/>
      <point x="1002" y="-335" type="line"/>
      <point x="958" y="-352"/>
      <point x="908" y="-364"/>
      <point x="863" y="-364" type="curve" smooth="yes"/>
      <point x="793" y="-364"/>
      <point x="737" y="-345"/>
      <point x="735" y="-259" type="curve"/>
      <point x="733" y="-162"/>
      <point x="831" y="-15"/>
      <point x="972" y="74" type="curve"/>
      <point x="941" y="91" type="line"/>
      <point x="736" y="5" type="line"/>
      <point x="614" y="-55"/>
      <point x="516" y="-200"/>
    </contour>
    <component base="e"/>
  </outline>
</glyph>
<glyph name="gcommaaccent" format="1">
  <advance width="1217"/>
  <unicode hex="0123"/>
  <outline>
    <contour>
      <point x="623" y="1802" type="line"/>
      <point x="561" y="1774"/>
      <point x="471" y="1675"/>
      <point x="471" y="1536" type="curve" smooth="yes"/>
      <point x="471" y="1425"/>
      <point x="519" y="1347"/>
      <point x="568" y="1324" type="curve"/>
      <point x="726" y="1416" type="line"/>
      <point x="726" y="1466" type="line"/>
      <point x="685" y="1475"/>
      <point x="659" y="1539"/>
      <point x="659" y="1590" type="curve" smooth="yes"/>
      <point x="659" y="1654"/>
      <point x="678" y="1711"/>
      <point x="698" y="1735" type="curve"/>
      <point x="698" y="1761" type="line"/>
    </contour>
    <component base="g"/>
  </outline>
</glyph>
<glyph name="Hbar" format="1">
  <advance width="1563"/>
  <unicode hex="0126"/>
  <outline>
    <contour>
      <point x="194" y="0" type="line"/>
      <point x="417" y="0" type="line"/>
      <point x="417" y="674" type="line"/>
      <point x="1146" y="674" type="line"/>
      <point x="1146" y="0" type="line"/>
      <point x="1369" y="0" type="line"/>
      <point x="1369" y="1522" type="line"/>
      <point x="1146" y="1522" type="line"/>
      <point x="1146" y="845" type="line"/>
      <point x="417" y="845" type="line"/>
      <point x="417" y="1522" type="line"/>
      <point x="194" y="1522" type="line"/>
    </contour>
    <contour>
      <point x="8" y="1065" type="line"/>
      <point x="1558" y="1065" type="line"/>
      <point x="1558" y="1207" type="line"/>
      <point x="8" y="1207" type="line"/>
    </contour>
  </outline>
</glyph>
<glyph name="Iogonek" format="1">
  <advance width="640"/>
  <unicode hex="012E"/>
  <outline>
    <contour>
      <point x="43" y="-292" type="curve"/>
      <point x="45" y="-429"/>
      <point x="159" y="-512"/>
      <point x="309" y="-512" type="curve" smooth="yes"/>
      <point x="393" y="-512"/>
      <point x="479" y="-496"/>
      <point x="536" y="-453" type="curve"/>
      <point x="536" y="-335" type="line"/>
      <point x="492" y="-352"/>
      <point x="442" y="-364"/>
      <point x="397" y="-364" type="curve" smooth="yes"/>
      <point x="327" y="-364"/>
      <point x="261" y="-334"/>
      <point x="259" y="-248" type="curve"/>
      <point x="257" y="-151"/>
      <point x="304" y="-65"/>
      <point x="410" y="1" type="curve"/>
      <point x="379" y="18" type="line"/>
      <point x="249" y="5" type="line"/>
      <point x="147" y="-55"/>
      <point x="41" y="-170"/>
    </contour>
    <component base="I"/>
  </outline>
</glyph>
<glyph name="iogonek" format="1">
  <advance width="606"/>
  <unicode hex="012F"/>
  <outline>
    <contour>
      <point x="23" y="-292" type="curve"/>
      <point x="25" y="-429"/>
      <point x="139" y="-512"/>
      <point x="289" y="-512" type="curve" smooth="yes"/>
      <point x="373" y="-512"/>
      <point x="459" y="-496"/>
      <point x="516" y="-453" type="curve"/>
      <point x="516" y="-335" type="line"/>
      <point x="472" y="-352"/>
      <point x="422" y="-364"/>
      <point x="377" y="-364" type="curve" smooth="yes"/>
      <point x="307" y="-364"/>
      <point x="241" y="-334"/>
      <point x="239" y="-248" type="curve"/>
      <point x="237" y="-151"/>
      <point x="284" y="-65"/>
      <point x="390" y="1" type="curve"/>
      <point x="359" y="18" type="line"/>
      <point x="229" y="5" type="line"/>
      <point x="127" y="-55"/>
      <point x="21" y="-170"/>
    </contour>
    <component base="dotlessi"/>
    <component base="dotaccent" xOffset="104"/>
  </outline>
</glyph>
<glyph name="kgreenlandic" format="1">
  <advance width="1169"/>
  <unicode hex="0138"/>
  <outline>
    <contour>
      <point x="1129" y="1140" type="line"/>
      <point x="878" y="1140" type="line"/>
      <point x="339" y="510" type="line"/>
      <point x="394" y="474" type="line"/>
      <point x="401" y="659" type="line"/>
      <point x="401" y="1140" type="line"/>
      <point x="181" y="1140" type="line"/>
      <point x="184" y="0" type="line"/>
      <point x="404" y="0" type="line"/>
      <point x="404" y="190" type="line"/>
      <point x="397" y="365" type="line"/>
      <point x="376" y="312" type="line"/>
    </contour>
    <contour>
      <point x="529" y="534" type="line"/>
      <point x="917" y="0" type="line"/>
      <point x="1168" y="0" type="line"/>
      <point x="679" y="673" type="line"/>
    </contour>
  </outline>
</glyph>
<glyph name="lacute" format="1">
  <advance width="631"/>
  <unicode hex="013A"/>
  <outline>
    <contour>
      <point x="197" y="0" type="line"/>
      <point x="417" y="0" type="line"/>
      <point x="417" y="1532" type="line"/>
      <point x="197" y="1532" type="line"/>
    </contour>
    <component base="acute.cap" xOffset="126"/>
  </outline>
</glyph>
<glyph name="Lslash" format="1">
  <advance width="1080"/>
  <unicode hex="0141"/>
  <outline>
    <contour>
      <point x="18" y="704" type="line"/>
      <point x="71" y="568" type="line"/>
      <point x="865" y="859" type="line"/>
      <point x="812" y="997" type="line"/>
    </contour>
    <component base="L"/>
  </outline>
</glyph>
<glyph name="lslash" format="1">
  <advance width="613"/>
  <unicode hex="0142"/>
  <outline>
    <contour>
      <point x="30" y="773" type="line"/>
      <point x="596" y="990" type="line"/>
      <point x="596" y="1151" type="line"/>
      <point x="30" y="924" type="line"/>
    </contour>
    <component base="l"/>
  </outline>
</glyph>
<glyph name="Eng" format="1">
  <advance width="1584"/>
  <unicode hex="014A"/>
  <outline>
    <contour>
      <point x="412" y="0" type="line"/>
      <point x="412" y="955" type="line"/>
      <point x="395" y="1380" type="line"/>
      <point x="298" y="1380" type="line"/>
      <point x="525" y="976" type="line"/>
      <point x="1153" y="45" type="line"/>
      <point x="1153" y="-95"/>
      <point x="938" y="-252"/>
      <point x="767" y="-301" type="curve"/>
      <point x="824" y="-406" type="line"/>
      <point x="1035" y="-379"/>
      <point x="1310" y="-219"/>
      <point x="1366" y="54" type="curve" smooth="yes"/>
      <point x="1395" y="190"/>
      <point x="1390" y="352"/>
      <point x="1390" y="539" type="curve" smooth="yes"/>
      <point x="1390" y="1522" type="line"/>
      <point x="1171" y="1522" type="line"/>
      <point x="1171" y="541" type="line"/>
      <point x="1197" y="134" type="line"/>
      <point x="1276" y="134" type="line"/>
      <point x="1075" y="508" type="line"/>
      <point x="398" y="1522" type="line"/>
      <point x="193" y="1522" type="line"/>
      <point x="195" y="0" type="line"/>
    </contour>
  </outline>
</glyph>
<glyph name="eng" format="1">
  <advance width="1279"/>
  <unicode hex="014B"/>
  <outline>
    <contour>
      <point x="176" y="0" type="line"/>
      <point x="396" y="0" type="line"/>
      <point x="396" y="869" type="line"/>
      <point x="487" y="935"/>
      <point x="608" y="970"/>
      <point x="681" y="973" type="curve" smooth="yes"/>
      <point x="855" y="981"/>
      <point x="889" y="897"/>
      <point x="889" y="711" type="curve" smooth="yes"/>
      <point x="889" y="-45" type="line" smooth="yes"/>
      <point x="889" y="-282"/>
      <point x="863" y="-352"/>
      <point x="746" y="-352" type="curve" smooth="yes"/>
      <point x="722" y="-352"/>
      <point x="659" y="-348"/>
      <point x="638" y="-341" type="curve"/>
      <point x="638" y="-493" type="line"/>
      <point x="656" y="-501"/>
      <point x="754" y="-507"/>
      <point x="792" y="-507" type="curve" smooth="yes"/>
      <point x="1002" y="-507"/>
      <point x="1109" y="-334"/>
      <point x="1109" y="-16" type="curve" smooth="yes"/>
      <point x="1109" y="714" type="line" smooth="yes"/>
      <point x="1108" y="1048"/>
      <point x="1016" y="1163"/>
      <point x="770" y="1157" type="curve"/>
      <point x="621" y="1153"/>
      <point x="457" y="1076"/>
      <point x="372" y="1018" type="curve"/>
      <point x="371" y="1138" type="line"/>
      <point x="176" y="1138" type="line"/>
    </contour>
  </outline>
</glyph>
<glyph name="OE" format="1">
  <advance width="2063"/>
  <unicode hex="0152"/>
  <outline>
    <contour>
      <point x="100" y="769" type="curve" smooth="yes"/>
      <point x="91" y="314"/>
      <point x="355" y="-24"/>
      <point x="775" y="-16" type="curve" smooth="yes"/>
      <point x="930" y="-13"/>
      <point x="1023" y="32"/>
      <point x="1118" y="101" type="curve"/>
      <point x="1116" y="312" type="line"/>
      <point x="1038" y="203"/>
      <point x="925" y="152"/>
      <point x="784" y="152" type="curve" smooth="yes"/>
      <point x="482" y="152"/>
      <point x="324" y="437"/>
      <point x="324" y="758" type="curve" smooth="yes"/>
      <point x="324" y="1183"/>
      <point x="550" y="1369"/>
      <point x="800" y="1369" type="curve" smooth="yes"/>
      <point x="948" y="1369"/>
      <point x="1051" y="1326"/>
      <point x="1122" y="1231" type="curve"/>
      <point x="1102" y="1464" type="line"/>
      <point x="1014" y="1526"/>
      <point x="892" y="1541"/>
      <point x="805" y="1538" type="curve" smooth="yes"/>
      <point x="396" y="1524"/>
      <point x="110" y="1271"/>
    </contour>
    <contour>
      <point x="1040" y="0" type="line"/>
      <point x="1989" y="0" type="line"/>
      <point x="1989" y="175" type="line"/>
      <point x="1263" y="175" type="line"/>
      <point x="1263" y="698" type="line"/>
      <point x="1742" y="698" type="line"/>
      <point x="1742" y="870" type="line"/>
      <point x="1263" y="870" type="line"/>
      <point x="1263" y="1350" type="line"/>
      <point x="1916" y="1350" type="line"/>
      <point x="1916" y="1522" type="line"/>
      <point x="1040" y="1522" type="line"/>
    </contour>
    <contour>
      <point x="1056" y="-170" type="move" name="btm"/>
    </contour>
    <contour>
      <point x="1056" y="1700" type="move" name="top"/>
    </contour>
  </outline>
</glyph>
<glyph name="Tbar" format="1">
  <advance width="1303"/>
  <unicode hex="0166"/>
  <outline>
    <contour>
      <point x="249" y="651" type="line"/>
      <point x="1059" y="651" type="line"/>
      <point x="1059" y="796" type="line"/>
      <point x="249" y="796" type="line"/>
    </contour>
    <component base="T"/>
  </outline>
</glyph>
<glyph name="Uogonek" format="1">
  <advance width="1463"/>
  <unicode hex="0172"/>
  <outline>
    <contour>
      <point x="569" y="-302" type="curve"/>
      <point x="570" y="-439"/>
      <point x="675" y="-512"/>
      <point x="815" y="-512" type="curve" smooth="yes"/>
      <point x="899" y="-512"/>
      <point x="995" y="-496"/>
      <point x="1052" y="-453" type="curve"/>
      <point x="1052" y="-335" type="line"/>
      <point x="1008" y="-352"/>
      <point x="958" y="-364"/>
      <point x="913" y="-364" type="curve" smooth="yes"/>
      <point x="843" y="-364"/>
      <point x="787" y="-345"/>
      <point x="785" y="-259" type="curve"/>
      <point x="783" y="-162"/>
      <point x="881" y="-15"/>
      <point x="1022" y="74" type="curve"/>
      <point x="991" y="91" type="line"/>
      <point x="786" y="5" type="line"/>
      <point x="664" y="-55"/>
      <point x="566" y="-200"/>
    </contour>
    <component base="U"/>
  </outline>
</glyph>
<glyph name="florin" format="1">
  <advance width="1169"/>
  <unicode hex="0192"/>
  <outline>
    <contour>
      <point x="310" y="-356" type="line"/>
      <point x="525" y="-356" type="line"/>
      <point x="636" y="972" type="line"/>
      <point x="935" y="972" type="line"/>
      <point x="948" y="1140" type="line"/>
      <point x="649" y="1140" type="line"/>
      <point x="664" y="1268" type="line" smooth="yes"/>
      <point x="686" y="1456"/>
      <point x="774" y="1507"/>
      <point x="879" y="1507" type="curve" smooth="yes"/>
      <point x="969" y="1507"/>
      <point x="1025" y="1499"/>
      <point x="1044" y="1488" type="curve"/>
      <point x="1057" y="1667" type="line"/>
      <point x="1042" y="1674"/>
      <point x="996" y="1685"/>
      <point x="907" y="1685" type="curve" smooth="yes"/>
      <point x="680" y="1685"/>
      <point x="485" y="1557"/>
      <point x="442" y="1204" type="curve" smooth="yes"/>
      <point x="434" y="1140" type="line"/>
      <point x="225" y="1086" type="line"/>
      <point x="217" y="972" type="line"/>
      <point x="422" y="972" type="line"/>
    </contour>
  </outline>
</glyph>
<glyph name="caron" format="1">
  <advance width="824"/>
  <unicode hex="02C7"/>
  <outline>
    <contour>
      <point x="47" y="1626" type="line"/>
      <point x="323" y="1293" type="line"/>
      <point x="521" y="1293" type="line"/>
      <point x="789" y="1625" type="line"/>
      <point x="654" y="1681" type="line"/>
      <point x="422" y="1459" type="line"/>
      <point x="173" y="1682" type="line"/>
    </contour>
    <contour>
      <point x="419" y="1672" type="move" name="_top"/>
    </contour>
  </outline>
</glyph>
<glyph name="firsttonechinese" format="1">
  <advance width="647"/>
  <unicode hex="02C9"/>
  <outline>
    <contour>
      <point x="50" y="1775" type="line"/>
      <point x="597" y="1775" type="line"/>
      <point x="597" y="1937" type="line"/>
      <point x="50" y="1937" type="line"/>
    </contour>
    <contour>
      <point x="321" y="1700" type="move" name="_top"/>
    </contour>
  </outline>
</glyph>
<glyph name="breve" format="1">
  <advance width="784"/>
  <unicode hex="02D8"/>
  <outline>
    <contour>
      <point x="392" y="1308" type="curve" smooth="yes"/>
      <point x="609" y="1308"/>
      <point x="752" y="1495"/>
      <point x="735" y="1685" type="curve"/>
      <point x="585" y="1685" type="line"/>
      <point x="584" y="1658"/>
      <point x="583" y="1480"/>
      <point x="393" y="1480" type="curve" smooth="yes"/>
      <point x="202" y="1480"/>
      <point x="204" y="1658"/>
      <point x="203" y="1685" type="curve"/>
      <point x="49" y="1685" type="line"/>
      <point x="33" y="1495"/>
      <point x="164" y="1308"/>
    </contour>
    <contour>
      <point x="392" y="1700" type="move" name="_top"/>
    </contour>
  </outline>
</glyph>
<glyph name="ring" format="1">
  <advance width="731"/>
  <unicode hex="02DA"/>
  <outline>
    <contour>
      <point x="362" y="1328" type="curve" smooth="yes"/>
      <point x="534" y="1328"/>
      <point x="684" y="1415"/>
      <point x="686" y="1606" type="curve" smooth="yes"/>
      <point x="687" y="1777"/>
      <point x="560" y="1873"/>
      <point x="365" y="1873" type="curve" smooth="yes"/>
      <point x="209" y="1873"/>
      <point x="48" y="1798"/>
      <point x="45" y="1607" type="curve" smooth="yes"/>
      <point x="42" y="1438"/>
      <point x="170" y="1328"/>
    </contour>
    <contour>
      <point x="363" y="1454" type="curve" smooth="yes"/>
      <point x="263" y="1456"/>
      <point x="201" y="1518"/>
      <point x="201" y="1607" type="curve" smooth="yes"/>
      <point x="201" y="1716"/>
      <point x="283" y="1750"/>
      <point x="363" y="1749" type="curve" smooth="yes"/>
      <point x="458" y="1748"/>
      <point x="532" y="1698"/>
      <point x="532" y="1605" type="curve" smooth="yes"/>
      <point x="532" y="1498"/>
      <point x="462" y="1453"/>
    </contour>
    <contour>
      <point x="365" y="1700" type="move" name="_top"/>
    </contour>
  </outline>
</glyph>
<glyph name="ogonek" format="1">
  <advance width="640"/>
  <unicode hex="02DB"/>
  <outline>
    <contour>
      <point x="301" y="-511" type="curve" smooth="yes"/>
      <point x="440" y="-511"/>
      <point x="533" y="-468"/>
      <point x="584" y="-437" type="curve"/>
      <point x="566" y="-318" type="line"/>
      <point x="532" y="-331"/>
      <point x="450" y="-367"/>
      <point x="376" y="-367" type="curve" smooth="yes"/>
      <point x="290" y="-367"/>
      <point x="247" y="-333"/>
      <point x="247" y="-263" type="curve" smooth="yes"/>
      <point x="246" y="-164"/>
      <point x="394" y="-43"/>
      <point x="512" y="5" type="curve"/>
      <point x="414" y="8" type="line"/>
      <point x="314" y="-2" type="line"/>
      <point x="178" y="-63"/>
      <point x="50" y="-178"/>
      <point x="52" y="-302" type="curve" smooth="yes"/>
      <point x="54" y="-437"/>
      <point x="175" y="-511"/>
    </contour>
  </outline>
</glyph>
<glyph name="commaaccentcomb" format="1">
  <advance width="358"/>
  <unicode hex="0326"/>
  <outline>
    <contour>
      <point x="143" y="-560" type="line"/>
      <point x="205" y="-532"/>
      <point x="295" y="-433"/>
      <point x="295" y="-294" type="curve" smooth="yes"/>
      <point x="295" y="-183"/>
      <point x="247" y="-105"/>
      <point x="198" y="-82" type="curve"/>
      <point x="40" y="-174" type="line"/>
      <point x="40" y="-224" type="line"/>
      <point x="81" y="-233"/>
      <point x="107" y="-297"/>
      <point x="107" y="-348" type="curve" smooth="yes"/>
      <point x="107" y="-412"/>
      <point x="88" y="-469"/>
      <point x="68" y="-493" type="curve"/>
      <point x="68" y="-519" type="line"/>
    </contour>
    <contour>
      <point x="155" y="-170" type="move" name="_btm"/>
    </contour>
  </outline>
</glyph>
<glyph name="pi" format="1">
  <advance width="1556"/>
  <unicode hex="03C0"/>
  <outline>
    <contour>
      <point x="120" y="920" type="curve"/>
      <point x="231" y="867" type="line"/>
      <point x="267" y="906"/>
      <point x="320" y="956"/>
      <point x="414" y="956" type="curve" smooth="yes"/>
      <point x="1156" y="955" type="line" smooth="yes"/>
      <point x="1336" y="955"/>
      <point x="1440" y="1027"/>
      <point x="1451" y="1215" type="curve"/>
      <point x="1309" y="1215" type="line"/>
      <point x="1291" y="1161"/>
      <point x="1244" y="1140"/>
      <point x="1162" y="1140" type="curve" smooth="yes"/>
      <point x="449" y="1140" type="line" smooth="yes"/>
      <point x="310" y="1140"/>
      <point x="224" y="1107"/>
      <point x="170" y="1035" type="curve" smooth="yes"/>
      <point x="146" y="1001"/>
      <point x="122" y="944"/>
    </contour>
    <contour>
      <point x="924" y="249" type="line"/>
      <point x="913" y="79"/>
      <point x="974" y="-24"/>
      <point x="1128" y="-24" type="curve" smooth="yes"/>
      <point x="1298" y="-24"/>
      <point x="1432" y="111"/>
      <point x="1452" y="233" type="curve"/>
      <point x="1345" y="282" type="line"/>
      <point x="1317" y="228"/>
      <point x="1251" y="148"/>
      <point x="1192" y="148" type="curve" smooth="yes"/>
      <point x="1154" y="148"/>
      <point x="1119" y="169"/>
      <point x="1123" y="255" type="curve" smooth="yes"/>
      <point x="1158" y="1083" type="line"/>
      <point x="982" y="1081" type="line"/>
    </contour>
    <contour>
      <point x="178" y="97" type="curve"/>
      <point x="312" y="-24" type="line"/>
      <point x="371" y="-10"/>
      <point x="424" y="16"/>
      <point x="463" y="52" type="curve" smooth="yes"/>
      <point x="553" y="135"/>
      <point x="612" y="200"/>
      <point x="624" y="428" type="curve" smooth="yes"/>
      <point x="659" y="1081" type="line"/>
      <point x="477" y="1081" type="line"/>
      <point x="432" y="487" type="line" smooth="yes"/>
      <point x="420" y="347"/>
      <point x="410" y="242"/>
      <point x="300" y="161" type="curve" smooth="yes"/>
      <point x="248" y="124"/>
      <point x="196" y="101"/>
    </contour>
  </outline>
</glyph>
<glyph name="Germandbls" format="1">
  <advance width="1495"/>
  <unicode hex="1E9E"/>
  <outline>
    <contour>
      <point x="105" y="0" type="line" name="hr01"/>
      <point x="333" y="0" type="line"/>
      <point x="333" y="868" type="line" smooth="yes"/>
      <point x="333" y="1212"/>
      <point x="545" y="1374"/>
      <point x="802" y="1374" type="curve" smooth="yes"/>
      <point x="889" y="1374"/>
      <point x="969" y="1351"/>
      <point x="1019" y="1313" type="curve"/>
      <point x="767" y="871" type="line"/>
      <point x="758" y="789" type="line"/>
      <point x="1086" y="788"/>
      <point x="1195" y="702"/>
      <point x="1195" y="463" type="curve" smooth="yes"/>
      <point x="1195" y="250"/>
      <point x="1048" y="149"/>
      <point x="903" y="149" type="curve" smooth="yes"/>
      <point x="797" y="149"/>
      <point x="672" y="191"/>
      <point x="624" y="237" type="curve"/>
      <point x="543" y="63" type="line"/>
      <point x="620" y="16"/>
      <point x="718" y="-23"/>
      <point x="932" y="-23" type="curve" smooth="yes"/>
      <point x="1250" y="-23"/>
      <point x="1413" y="210"/>
      <point x="1413" y="465" type="curve" name="hr02" smooth="yes"/>
      <point x="1413" y="773"/>
      <point x="1222" y="918"/>
      <point x="1009" y="918" type="curve"/>
      <point x="1269" y="1346" type="line"/>
      <point x="1271" y="1446" type="line"/>
      <point x="1169" y="1446"/>
      <point x="1068" y="1538"/>
      <point x="796" y="1538" type="curve" smooth="yes"/>
      <point x="329" y="1538"/>
      <point x="105" y="1240"/>
      <point x="105" y="753" type="curve" smooth="yes"/>
    </contour>
  </outline>
</glyph>
<glyph name="uni1E9E" format="1">
  <advance width="1495"/>
  <unicode hex="1E9E"/>
  <outline>
    <contour>
      <point x="105" y="0" type="line" name="hr01"/>
      <point x="333" y="0" type="line"/>
      <point x="333" y="868" type="line" smooth="yes"/>
      <point x="333" y="1212"/>
      <point x="545" y="1374"/>
      <point x="802" y="1374" type="curve" smooth="yes"/>
      <point x="889" y="1374"/>
      <point x="969" y="1351"/>
      <point x="1019" y="1313" type="curve"/>
      <point x="767" y="871" type="line"/>
      <point x="758" y="789" type="line"/>
      <point x="1086" y="788"/>
      <point x="1195" y="702"/>
      <point x="1195" y="463" type="curve" smooth="yes"/>
      <point x="1195" y="250"/>
      <point x="1048" y="149"/>
      <point x="903" y="149" type="curve" smooth="yes"/>
      <point x="797" y="149"/>
      <point x="672" y="191"/>
      <point x="624" y="237" type="curve"/>
      <point x="543" y="63" type="line"/>
      <point x="620" y="16"/>
      <point x="718" y="-23"/>
      <point x="932" y="-23" type="curve" smooth="yes"/>
      <point x="1250" y="-23"/>
      <point x="1413" y="210"/>
      <point x="1413" y="465" type="curve" smooth="yes" name="hr02"/>
      <point x="1413" y="773"/>
      <point x="1222" y="918"/>
      <point x="1009" y="918" type="curve"/>
      <point x="1269" y="1346" type="line"/>
      <point x="1271" y="1446" type="line"/>
      <point x="1169" y="1446"/>
      <point x="1068" y="1538"/>
      <point x="796" y="1538" type="curve" smooth="yes"/>
      <point x="329" y="1538"/>
      <point x="105" y="1240"/>
      <point x="105" y="753" type="curve" smooth="yes"/>
    </contour>
  </outline>
</glyph>
<glyph name="endash" format="1">
  <advance width="1692"/>
  <unicode hex="2013"/>
  <outline>
    <contour>
      <point x="240" y="683" type="line"/>
      <point x="1452" y="683" type="line"/>
      <point x="1452" y="860" type="line"/>
      <point x="240" y="860" type="line"/>
    </contour>
  </outline>
</glyph>
<glyph name="quoteleft" format="1">
  <advance width="520"/>
  <unicode hex="2018"/>
  <outline>
    <contour>
      <point x="304" y="960" type="curve"/>
      <point x="417" y="1087" type="line"/>
      <point x="417" y="1149" type="line"/>
      <point x="365" y="1173"/>
      <point x="304" y="1264"/>
      <point x="304" y="1368" type="curve" smooth="yes"/>
      <point x="304" y="1463"/>
      <point x="341" y="1590"/>
      <point x="401" y="1640" type="curve"/>
      <point x="401" y="1672" type="line"/>
      <point x="305" y="1733" type="line"/>
      <point x="228" y="1683"/>
      <point x="98" y="1532"/>
      <point x="98" y="1326" type="curve" smooth="yes"/>
      <point x="98" y="1143"/>
      <point x="184" y="1003"/>
    </contour>
  </outline>
</glyph>
<glyph name="dagger" format="1">
  <advance width="1026"/>
  <unicode hex="2020"/>
  <outline>
    <contour>
      <point x="425" y="200" type="line"/>
      <point x="601" y="200" type="line"/>
      <point x="612" y="1128" type="line"/>
      <point x="902" y="1125" type="line"/>
      <point x="902" y="1288" type="line"/>
      <point x="612" y="1284" type="line"/>
      <point x="615" y="1658" type="line"/>
      <point x="411" y="1658" type="line"/>
      <point x="414" y="1284" type="line"/>
      <point x="125" y="1288" type="line"/>
      <point x="124" y="1125" type="line"/>
      <point x="414" y="1128" type="line"/>
    </contour>
  </outline>
</glyph>
<glyph name="daggerdbl" format="1">
  <advance width="1026"/>
  <unicode hex="2021"/>
  <outline>
    <contour>
      <point x="428" y="-356" type="line"/>
      <point x="595" y="-356" type="line"/>
      <point x="611" y="479" type="line"/>
      <point x="901" y="476" type="line"/>
      <point x="901" y="639" type="line"/>
      <point x="611" y="636" type="line"/>
      <point x="611" y="1128" type="line"/>
      <point x="902" y="1125" type="line"/>
      <point x="902" y="1288" type="line"/>
      <point x="611" y="1285" type="line"/>
      <point x="615" y="1658" type="line"/>
      <point x="410" y="1658" type="line"/>
      <point x="413" y="1285" type="line"/>
      <point x="125" y="1288" type="line"/>
      <point x="124" y="1125" type="line"/>
      <point x="413" y="1128" type="line"/>
      <point x="413" y="636" type="line"/>
      <point x="124" y="639" type="line"/>
      <point x="124" y="476" type="line"/>
      <point x="413" y="479" type="line"/>
    </contour>
  </outline>
</glyph>
<glyph name="bullet" format="1">
  <advance width="855"/>
  <unicode hex="2022"/>
  <outline>
    <contour>
      <point x="418" y="499" type="curve" smooth="yes"/>
      <point x="538" y="499"/>
      <point x="642" y="602"/>
      <point x="648" y="728" type="curve" smooth="yes"/>
      <point x="655" y="854"/>
      <point x="558" y="952"/>
      <point x="438" y="952" type="curve" smooth="yes"/>
      <point x="318" y="952"/>
      <point x="214" y="851"/>
      <point x="207" y="724" type="curve" smooth="yes"/>
      <point x="200" y="603"/>
      <point x="297" y="499"/>
    </contour>
  </outline>
</glyph>
<glyph name="perthousand" format="1">
  <advance width="2800"/>
  <unicode hex="2030"/>
  <outline>
    <contour>
      <point x="2342" y="51" type="curve" smooth="yes"/>
      <point x="2542" y="56"/>
      <point x="2725" y="201"/>
      <point x="2725" y="468" type="curve" smooth="yes"/>
      <point x="2725" y="699"/>
      <point x="2618" y="887"/>
      <point x="2372" y="881" type="curve" smooth="yes"/>
      <point x="2171" y="875"/>
      <point x="1988" y="728"/>
      <point x="1988" y="460" type="curve" smooth="yes"/>
      <point x="1988" y="238"/>
      <point x="2118" y="46"/>
    </contour>
    <contour>
      <point x="2355" y="197" type="curve" smooth="yes"/>
      <point x="2246" y="197"/>
      <point x="2184" y="313"/>
      <point x="2184" y="468" type="curve" smooth="yes"/>
      <point x="2184" y="633"/>
      <point x="2246" y="736"/>
      <point x="2359" y="736" type="curve" smooth="yes"/>
      <point x="2468" y="736"/>
      <point x="2530" y="626"/>
      <point x="2530" y="461" type="curve" smooth="yes"/>
      <point x="2530" y="297"/>
      <point x="2468" y="197"/>
    </contour>
    <component base="percent"/>
  </outline>
</glyph>
<glyph name="minute" format="1">
  <advance width="682"/>
  <unicode hex="2032"/>
  <outline>
    <contour>
      <point x="190" y="1190" type="line"/>
      <point x="353" y="1190" type="line"/>
      <point x="515" y="1793" type="line"/>
      <point x="284" y="1793" type="line"/>
    </contour>
  </outline>
</glyph>
<glyph name="colonmonetary" format="1">
  <advance width="1329"/>
  <unicode hex="20A1"/>
  <outline>
    <contour>
      <point x="95" y="753" type="curve" smooth="yes" name="hr01"/>
      <point x="95" y="403"/>
      <point x="255" y="142"/>
      <point x="523" y="36" type="curve"/>
      <point x="497" y="-354" type="line" name="hr02"/>
      <point x="614" y="-354" type="line"/>
      <point x="637" y="1" type="line"/>
      <point x="681" y="-7"/>
      <point x="726" y="-13"/>
      <point x="773" y="-15" type="curve" name="hr03"/>
      <point x="751" y="-354" type="line"/>
      <point x="868" y="-354" type="line" name="hr04"/>
      <point x="890" y="-13" type="line"/>
      <point x="1031" y="-2"/>
      <point x="1121" y="34"/>
      <point x="1195" y="64" type="curve"/>
      <point x="1194" y="261" type="line"/>
      <point x="1150" y="222"/>
      <point x="1030" y="184"/>
      <point x="903" y="172" type="curve"/>
      <point x="980" y="1338" type="line"/>
      <point x="1096" y="1320"/>
      <point x="1151" y="1286"/>
      <point x="1172" y="1275" type="curve"/>
      <point x="1205" y="1481" type="line"/>
      <point x="1167" y="1490"/>
      <point x="1103" y="1513"/>
      <point x="993" y="1527" type="curve" name="hr05"/>
      <point x="1012" y="1815" type="line"/>
      <point x="895" y="1815" type="line"/>
      <point x="876" y="1537" type="line"/>
      <point x="854" y="1538"/>
      <point x="831" y="1538"/>
      <point x="807" y="1538" type="curve" smooth="yes" name="hr06"/>
      <point x="784" y="1538"/>
      <point x="762" y="1537"/>
      <point x="739" y="1535" type="curve"/>
      <point x="758" y="1815" type="line"/>
      <point x="641" y="1815" type="line" name="hr07"/>
      <point x="621" y="1514" type="line"/>
      <point x="325" y="1437"/>
      <point x="95" y="1173"/>
    </contour>
    <contour>
      <point x="650" y="197" type="curve"/>
      <point x="726" y="1341" type="line"/>
      <point x="757" y="1346"/>
      <point x="790" y="1349"/>
      <point x="824" y="1349" type="curve" smooth="yes"/>
      <point x="838" y="1349"/>
      <point x="851" y="1349"/>
      <point x="864" y="1348" type="curve"/>
      <point x="785" y="169" type="line"/>
      <point x="737" y="172"/>
      <point x="692" y="182"/>
    </contour>
    <contour>
      <point x="327" y="769" type="curve" smooth="yes"/>
      <point x="327" y="1031"/>
      <point x="430" y="1221"/>
      <point x="607" y="1304" type="curve"/>
      <point x="537" y="259" type="line"/>
      <point x="402" y="361"/>
      <point x="327" y="544"/>
    </contour>
  </outline>
</glyph>
<glyph name="franc" format="1">
  <advance width="1093"/>
  <unicode hex="20A3"/>
  <outline>
    <contour>
      <point x="-10" y="244" type="line" name="hr00"/>
      <point x="195" y="244" type="line"/>
      <point x="195" y="0" type="line"/>
      <point x="429" y="0" type="line"/>
      <point x="429" y="244" type="line"/>
      <point x="680" y="244" type="line"/>
      <point x="680" y="427" type="line"/>
      <point x="429" y="427" type="line"/>
      <point x="429" y="673" type="line"/>
      <point x="913" y="673" type="line"/>
      <point x="913" y="852" type="line"/>
      <point x="429" y="852" type="line"/>
      <point x="429" y="1343" type="line"/>
      <point x="1074" y="1343" type="line"/>
      <point x="1074" y="1522" type="line"/>
      <point x="195" y="1522" type="line"/>
      <point x="195" y="427" type="line"/>
      <point x="-10" y="427" type="line"/>
    </contour>
  </outline>
</glyph>
<glyph name="lira" format="1">
  <advance width="1501"/>
  <unicode hex="20A4"/>
  <outline>
    <contour>
      <point x="231" y="850" type="line" name="hr00"/>
      <point x="434" y="850" type="line"/>
      <point x="434" y="720" type="line"/>
      <point x="209" y="720" type="line"/>
      <point x="209" y="582" type="line"/>
      <point x="434" y="582" type="line"/>
      <point x="434" y="472" type="line" smooth="yes"/>
      <point x="434" y="397"/>
      <point x="431" y="315"/>
      <point x="406" y="261" type="curve"/>
      <point x="230" y="252"/>
      <point x="144" y="177"/>
      <point x="144" y="82" type="curve" smooth="yes"/>
      <point x="144" y="30"/>
      <point x="208" y="-2"/>
      <point x="255" y="-2" type="curve" smooth="yes"/>
      <point x="334" y="-2"/>
      <point x="416" y="48"/>
      <point x="456" y="92" type="curve"/>
      <point x="550" y="101"/>
      <point x="690" y="-20"/>
      <point x="970" y="-20" type="curve" smooth="yes"/>
      <point x="1252" y="-20"/>
      <point x="1403" y="88"/>
      <point x="1403" y="319" type="curve" smooth="yes"/>
      <point x="1403" y="445"/>
      <point x="1321" y="540"/>
      <point x="1273" y="567" type="curve"/>
      <point x="1110" y="485" type="line"/>
      <point x="1141" y="474"/>
      <point x="1186" y="411"/>
      <point x="1186" y="335" type="curve" smooth="yes"/>
      <point x="1186" y="232"/>
      <point x="1133" y="142"/>
      <point x="940" y="142" type="curve" smooth="yes"/>
      <point x="767" y="142"/>
      <point x="710" y="196"/>
      <point x="587" y="217" type="curve"/>
      <point x="647" y="281"/>
      <point x="662" y="398"/>
      <point x="664" y="582" type="curve"/>
      <point x="1021" y="582" type="line"/>
      <point x="1021" y="720" type="line"/>
      <point x="664" y="720" type="line"/>
      <point x="663" y="850" type="line"/>
      <point x="1043" y="850" type="line"/>
      <point x="1043" y="988" type="line"/>
      <point x="662" y="988" type="line"/>
      <point x="662" y="1013" type="line" smooth="yes"/>
      <point x="661" y="1308"/>
      <point x="779" y="1364"/>
      <point x="892" y="1364" type="curve" smooth="yes"/>
      <point x="1014" y="1364"/>
      <point x="1084" y="1321"/>
      <point x="1139" y="1273" type="curve"/>
      <point x="1246" y="1439" type="line"/>
      <point x="1186" y="1489"/>
      <point x="1083" y="1538"/>
      <point x="914" y="1538" type="curve" smooth="yes"/>
      <point x="612" y="1538"/>
      <point x="434" y="1341"/>
      <point x="434" y="1044" type="curve" smooth="yes"/>
      <point x="434" y="988" type="line"/>
      <point x="231" y="988" type="line"/>
    </contour>
  </outline>
</glyph>
<glyph name="naira" format="1">
  <advance width="1865"/>
  <unicode hex="20A6"/>
  <outline>
    <contour>
      <point x="78" y="912" type="line" name="hr00"/>
      <point x="302" y="912" type="line"/>
      <point x="302" y="617" type="line"/>
      <point x="55" y="617" type="line"/>
      <point x="55" y="470" type="line"/>
      <point x="302" y="470" type="line"/>
      <point x="302" y="0" type="line"/>
      <point x="518" y="0" type="line"/>
      <point x="518" y="470" type="line"/>
      <point x="1032" y="470" type="line"/>
      <point x="1362" y="0" type="line"/>
      <point x="1579" y="0" type="line"/>
      <point x="1579" y="470" type="line"/>
      <point x="1818" y="470" type="line"/>
      <point x="1818" y="617" type="line"/>
      <point x="1579" y="617" type="line"/>
      <point x="1579" y="912" type="line"/>
      <point x="1850" y="912" type="line"/>
      <point x="1850" y="1059" type="line"/>
      <point x="1579" y="1059" type="line"/>
      <point x="1579" y="1522" type="line"/>
      <point x="1364" y="1522" type="line"/>
      <point x="1364" y="1059" type="line"/>
      <point x="837" y="1059" type="line"/>
      <point x="515" y="1522" type="line"/>
      <point x="302" y="1522" type="line"/>
      <point x="302" y="1059" type="line"/>
      <point x="78" y="1059" type="line"/>
    </contour>
    <contour>
      <point x="623" y="1059" type="line"/>
      <point x="511" y="1059" type="line"/>
      <point x="502" y="1239" type="line"/>
    </contour>
    <contour>
      <point x="939" y="912" type="line"/>
      <point x="1364" y="912" type="line"/>
      <point x="1364" y="617" type="line"/>
      <point x="1144" y="617" type="line"/>
    </contour>
    <contour>
      <point x="518" y="912" type="line"/>
      <point x="723" y="912" type="line"/>
      <point x="929" y="617" type="line"/>
      <point x="518" y="617" type="line"/>
    </contour>
    <contour>
      <point x="1369" y="470" type="line"/>
      <point x="1380" y="268" type="line"/>
      <point x="1245" y="470" type="line"/>
    </contour>
  </outline>
</glyph>
<glyph name="uni20A6" format="1">
  <advance width="1865"/>
  <unicode hex="20A6"/>
  <outline>
    <contour>
      <point x="78" y="912" type="line" name="hr00"/>
      <point x="302" y="912" type="line"/>
      <point x="302" y="617" type="line"/>
      <point x="55" y="617" type="line"/>
      <point x="55" y="470" type="line"/>
      <point x="302" y="470" type="line"/>
      <point x="302" y="0" type="line"/>
      <point x="518" y="0" type="line"/>
      <point x="518" y="470" type="line"/>
      <point x="1032" y="470" type="line"/>
      <point x="1362" y="0" type="line"/>
      <point x="1579" y="0" type="line"/>
      <point x="1579" y="470" type="line"/>
      <point x="1818" y="470" type="line"/>
      <point x="1818" y="617" type="line"/>
      <point x="1579" y="617" type="line"/>
      <point x="1579" y="912" type="line"/>
      <point x="1850" y="912" type="line"/>
      <point x="1850" y="1059" type="line"/>
      <point x="1579" y="1059" type="line"/>
      <point x="1579" y="1522" type="line"/>
      <point x="1364" y="1522" type="line"/>
      <point x="1364" y="1059" type="line"/>
      <point x="837" y="1059" type="line"/>
      <point x="515" y="1522" type="line"/>
      <point x="302" y="1522" type="line"/>
      <point x="302" y="1059" type="line"/>
      <point x="78" y="1059" type="line"/>
    </contour>
    <contour>
      <point x="623" y="1059" type="line"/>
      <point x="511" y="1059" type="line"/>
      <point x="502" y="1239" type="line"/>
    </contour>
    <contour>
      <point x="939" y="912" type="line"/>
      <point x="1364" y="912" type="line"/>
      <point x="1364" y="617" type="line"/>
      <point x="1144" y="617" type="line"/>
    </contour>
    <contour>
      <point x="518" y="912" type="line"/>
      <point x="723" y="912" type="line"/>
      <point x="929" y="617" type="line"/>
      <point x="518" y="617" type="line"/>
    </contour>
    <contour>
      <point x="1369" y="470" type="line"/>
      <point x="1380" y="268" type="line"/>
      <point x="1245" y="470" type="line"/>
    </contour>
  </outline>
</glyph>
<glyph name="peseta" format="1">
  <advance width="1371"/>
  <unicode hex="20A7"/>
  <outline>
    <contour>
      <point x="13" y="918" type="line" name="hr01"/>
      <point x="194" y="918" type="line"/>
      <point x="194" y="0" type="line"/>
      <point x="427" y="0" type="line"/>
      <point x="427" y="522" type="line"/>
      <point x="466" y="521"/>
      <point x="527" y="517"/>
      <point x="624" y="517" type="curve" smooth="yes"/>
      <point x="955" y="517"/>
      <point x="1151" y="662"/>
      <point x="1197" y="918" type="curve"/>
      <point x="1371" y="918" type="line"/>
      <point x="1371" y="1065" type="line"/>
      <point x="1207" y="1065" type="line"/>
      <point x="1198" y="1398"/>
      <point x="996" y="1538"/>
      <point x="673" y="1538" type="curve" smooth="yes"/>
      <point x="536" y="1538"/>
      <point x="420" y="1522"/>
      <point x="304" y="1522" type="curve" smooth="yes" name="hr02"/>
      <point x="194" y="1522" type="line"/>
      <point x="194" y="1065" type="line"/>
      <point x="13" y="1065" type="line"/>
    </contour>
    <contour>
      <point x="427" y="1353" type="line"/>
      <point x="483" y="1367"/>
      <point x="547" y="1370"/>
      <point x="608" y="1372" type="curve" smooth="yes"/>
      <point x="840" y="1379"/>
      <point x="968" y="1286"/>
      <point x="976" y="1065" type="curve"/>
      <point x="427" y="1065" type="line"/>
    </contour>
    <contour>
      <point x="427" y="698" type="curve"/>
      <point x="427" y="918" type="line"/>
      <point x="964" y="918" type="line"/>
      <point x="921" y="730"/>
      <point x="773" y="688"/>
      <point x="612" y="688" type="curve" smooth="yes"/>
      <point x="552" y="688"/>
      <point x="493" y="689"/>
    </contour>
  </outline>
</glyph>
<glyph name="won" format="1">
  <advance width="1928"/>
  <unicode hex="20A9"/>
  <outline>
    <contour>
      <point x="39" y="703" type="line" name="hr00"/>
      <point x="245" y="703" type="line"/>
      <point x="323" y="414" type="line"/>
      <point x="39" y="414" type="line"/>
      <point x="39" y="267" type="line"/>
      <point x="363" y="267" type="line"/>
      <point x="440" y="-15" type="line"/>
      <point x="642" y="-15" type="line"/>
      <point x="724" y="267" type="line"/>
      <point x="1203" y="267" type="line"/>
      <point x="1285" y="-15" type="line"/>
      <point x="1513" y="-15" type="line"/>
      <point x="1585" y="267" type="line"/>
      <point x="1907" y="267" type="line"/>
      <point x="1907" y="414" type="line"/>
      <point x="1622" y="414" type="line"/>
      <point x="1696" y="703" type="line"/>
      <point x="1907" y="703" type="line"/>
      <point x="1907" y="850" type="line"/>
      <point x="1734" y="850" type="line"/>
      <point x="1906" y="1522" type="line"/>
      <point x="1673" y="1522" type="line"/>
      <point x="1521" y="850" type="line"/>
      <point x="1249" y="850" type="line"/>
      <point x="1053" y="1522" type="line"/>
      <point x="881" y="1522" type="line"/>
      <point x="688" y="850" type="line"/>
      <point x="423" y="850" type="line"/>
      <point x="261" y="1522" type="line"/>
      <point x="22" y="1522" type="line"/>
      <point x="205" y="850" type="line"/>
      <point x="39" y="850" type="line"/>
    </contour>
    <contour>
      <point x="930" y="970" type="line"/>
      <point x="965" y="1159" type="line"/>
      <point x="1000" y="971" type="line"/>
      <point x="1035" y="850" type="line"/>
      <point x="895" y="850" type="line"/>
    </contour>
    <contour>
      <point x="1429" y="414" type="line"/>
      <point x="1369" y="414" type="line"/>
      <point x="1339" y="542" type="line"/>
      <point x="1292" y="703" type="line"/>
      <point x="1487" y="703" type="line"/>
      <point x="1451" y="541" type="line"/>
    </contour>
    <contour>
      <point x="852" y="703" type="line"/>
      <point x="1077" y="703" type="line"/>
      <point x="1161" y="414" type="line"/>
      <point x="767" y="414" type="line"/>
    </contour>
    <contour>
      <point x="576" y="414" type="line"/>
      <point x="521" y="414" type="line"/>
      <point x="498" y="542" type="line"/>
      <point x="459" y="703" type="line"/>
      <point x="645" y="703" type="line"/>
      <point x="599" y="542" type="line"/>
    </contour>
    <contour>
      <point x="1405" y="267" type="line"/>
      <point x="1404" y="263" type="line"/>
      <point x="1403" y="267" type="line"/>
    </contour>
    <contour>
      <point x="547" y="267" type="line"/>
      <point x="549" y="267" type="line"/>
      <point x="548" y="262" type="line"/>
    </contour>
  </outline>
</glyph>
<glyph name="sheqel" format="1">
  <advance width="2183"/>
  <unicode hex="20AA"/>
  <outline>
    <contour>
      <point x="1575" y="1522" type="line" name="hr00"/>
      <point x="1575" y="165" type="line"/>
      <point x="1285" y="165" type="line" smooth="yes"/>
      <point x="1070" y="165"/>
      <point x="1017" y="234"/>
      <point x="1017" y="375" type="curve" smooth="yes"/>
      <point x="1017" y="1158" type="line"/>
      <point x="833" y="1158" type="line"/>
      <point x="833" y="424" type="line" smooth="yes"/>
      <point x="833" y="114"/>
      <point x="956" y="0"/>
      <point x="1228" y="0" type="curve" smooth="yes"/>
      <point x="1743" y="0" type="line"/>
      <point x="1743" y="1522" type="line"/>
    </contour>
    <contour>
      <point x="648" y="0" type="line"/>
      <point x="648" y="1368" type="line"/>
      <point x="1038" y="1368" type="line" smooth="yes"/>
      <point x="1208" y="1368"/>
      <point x="1216" y="1259"/>
      <point x="1216" y="1118" type="curve" smooth="yes"/>
      <point x="1216" y="375" type="line"/>
      <point x="1400" y="375" type="line"/>
      <point x="1400" y="1099" type="line" smooth="yes"/>
      <point x="1400" y="1412"/>
      <point x="1338" y="1522"/>
      <point x="1085" y="1522" type="curve" smooth="yes"/>
      <point x="480" y="1522" type="line"/>
      <point x="480" y="0" type="line"/>
    </contour>
  </outline>
</glyph>
<glyph name="dong" format="1">
  <advance width="1332"/>
  <unicode hex="20AB"/>
  <outline>
    <contour>
      <point x="511" y="1353" type="line" name="hr00"/>
      <point x="849" y="1353" type="line"/>
      <point x="853" y="1230" type="line"/>
      <point x="810" y="1239"/>
      <point x="743" y="1248"/>
      <point x="664" y="1248" type="curve" smooth="yes"/>
      <point x="345" y="1248"/>
      <point x="157" y="1059"/>
      <point x="157" y="736" type="curve" smooth="yes"/>
      <point x="157" y="433"/>
      <point x="351" y="291"/>
      <point x="572" y="291" type="curve" smooth="yes"/>
      <point x="752" y="291"/>
      <point x="841" y="360"/>
      <point x="885" y="401" type="curve"/>
      <point x="885" y="331" type="line" smooth="yes"/>
      <point x="885" y="323"/>
      <point x="885" y="291"/>
      <point x="908" y="291" type="curve" smooth="yes"/>
      <point x="1072" y="291" type="line"/>
      <point x="1072" y="1353" type="line"/>
      <point x="1292" y="1353" type="line"/>
      <point x="1292" y="1521" type="line"/>
      <point x="1072" y="1521" type="line"/>
      <point x="1072" y="1694" type="line"/>
      <point x="849" y="1694" type="line"/>
      <point x="849" y="1521" type="line"/>
      <point x="511" y="1521" type="line"/>
    </contour>
    <contour>
      <point x="590" y="475" type="curve" smooth="yes"/>
      <point x="507" y="475"/>
      <point x="396" y="545"/>
      <point x="396" y="742" type="curve" smooth="yes"/>
      <point x="396" y="912"/>
      <point x="432" y="1065"/>
      <point x="660" y="1065" type="curve" smooth="yes"/>
      <point x="822" y="1065"/>
      <point x="837" y="1028"/>
      <point x="849" y="1013" type="curve"/>
      <point x="849" y="562" type="line"/>
      <point x="825" y="543"/>
      <point x="798" y="475"/>
    </contour>
    <contour>
      <point x="115" y="0" type="line"/>
      <point x="1220" y="0" type="line"/>
      <point x="1220" y="197" type="line"/>
      <point x="115" y="197" type="line"/>
    </contour>
  </outline>
</glyph>
<glyph name="uni20B1" format="1">
  <advance width="1377"/>
  <unicode hex="20B1"/>
  <outline>
    <contour>
      <point x="30" y="1068" type="line" name="hr01"/>
      <point x="195" y="1068" type="line"/>
      <point x="195" y="955" type="line"/>
      <point x="30" y="955" type="line"/>
      <point x="30" y="848" type="line"/>
      <point x="195" y="848" type="line"/>
      <point x="195" y="0" type="line"/>
      <point x="428" y="0" type="line"/>
      <point x="428" y="519" type="line"/>
      <point x="467" y="518"/>
      <point x="527" y="515"/>
      <point x="624" y="515" type="curve" smooth="yes"/>
      <point x="925" y="515"/>
      <point x="1115" y="634"/>
      <point x="1182" y="848" type="curve"/>
      <point x="1371" y="848" type="line"/>
      <point x="1371" y="955" type="line"/>
      <point x="1204" y="955" type="line"/>
      <point x="1207" y="982"/>
      <point x="1209" y="1011"/>
      <point x="1209" y="1041" type="curve" smooth="yes"/>
      <point x="1209" y="1050"/>
      <point x="1209" y="1059"/>
      <point x="1208" y="1068" type="curve"/>
      <point x="1371" y="1068" type="line"/>
      <point x="1371" y="1175" type="line"/>
      <point x="1197" y="1175" type="line"/>
      <point x="1150" y="1429"/>
      <point x="959" y="1538"/>
      <point x="674" y="1538" type="curve" smooth="yes"/>
      <point x="537" y="1538"/>
      <point x="421" y="1522"/>
      <point x="305" y="1522" type="curve" smooth="yes" name="hr02"/>
      <point x="195" y="1522" type="line"/>
      <point x="195" y="1175" type="line"/>
      <point x="30" y="1175" type="line"/>
    </contour>
    <contour>
      <point x="428" y="1353" type="line"/>
      <point x="484" y="1367"/>
      <point x="548" y="1370"/>
      <point x="609" y="1372" type="curve" smooth="yes"/>
      <point x="797" y="1377"/>
      <point x="917" y="1317"/>
      <point x="960" y="1175" type="curve"/>
      <point x="428" y="1175" type="line"/>
    </contour>
    <contour>
      <point x="978" y="1039" type="curve" smooth="yes"/>
      <point x="978" y="1008"/>
      <point x="976" y="980"/>
      <point x="972" y="955" type="curve"/>
      <point x="428" y="955" type="line"/>
      <point x="428" y="1068" type="line"/>
      <point x="977" y="1068" type="line"/>
      <point x="978" y="1058"/>
      <point x="978" y="1049"/>
    </contour>
    <contour>
      <point x="428" y="695" type="curve"/>
      <point x="428" y="848" type="line"/>
      <point x="943" y="848" type="line"/>
      <point x="883" y="717"/>
      <point x="752" y="685"/>
      <point x="612" y="685" type="curve" smooth="yes"/>
      <point x="552" y="685"/>
      <point x="494" y="686"/>
    </contour>
  </outline>
</glyph>
<glyph name="uni20B2" format="1">
  <advance width="1490"/>
  <unicode hex="20B2"/>
  <outline>
    <contour>
      <point x="98" y="753" type="curve" smooth="yes" name="hr01"/>
      <point x="98" y="352"/>
      <point x="309" y="47"/>
      <point x="682" y="-7" type="curve" name="hr02"/>
      <point x="680" y="-258" type="line"/>
      <point x="887" y="-258" type="line" name="hr03"/>
      <point x="889" y="-13" type="line"/>
      <point x="1138" y="3"/>
      <point x="1238" y="88"/>
      <point x="1321" y="93" type="curve"/>
      <point x="1321" y="767" type="line"/>
      <point x="825" y="767" type="line"/>
      <point x="825" y="600" type="line"/>
      <point x="1098" y="587" type="line"/>
      <point x="1098" y="217" type="line"/>
      <point x="1041" y="178"/>
      <point x="911" y="161"/>
      <point x="802" y="161" type="curve" smooth="yes"/>
      <point x="487" y="161"/>
      <point x="338" y="431"/>
      <point x="338" y="780" type="curve" smooth="yes"/>
      <point x="338" y="1143"/>
      <point x="531" y="1356"/>
      <point x="796" y="1356" type="curve" smooth="yes"/>
      <point x="1018" y="1356"/>
      <point x="1129" y="1320"/>
      <point x="1224" y="1271" type="curve"/>
      <point x="1234" y="1478" type="line"/>
      <point x="1122" y="1500"/>
      <point x="1056" y="1528"/>
      <point x="900" y="1536" type="curve" name="hr04"/>
      <point x="900" y="1762" type="line"/>
      <point x="693" y="1762" type="line" name="hr05"/>
      <point x="693" y="1530" type="line"/>
      <point x="353" y="1483"/>
      <point x="98" y="1226"/>
    </contour>
  </outline>
</glyph>
<glyph name="uni20B5" format="1">
  <advance width="1390"/>
  <unicode hex="20B5"/>
  <outline>
    <contour>
      <point x="96" y="753" type="curve" smooth="yes" name="hr00"/>
      <point x="96" y="363"/>
      <point x="294" y="83"/>
      <point x="618" y="5" type="curve"/>
      <point x="586" y="-354" type="line"/>
      <point x="733" y="-354" type="line"/>
      <point x="763" y="-14" type="line"/>
      <point x="778" y="-15"/>
      <point x="793" y="-16"/>
      <point x="809" y="-16" type="curve" smooth="yes"/>
      <point x="998" y="-16"/>
      <point x="1105" y="29"/>
      <point x="1192" y="64" type="curve"/>
      <point x="1191" y="261" type="line"/>
      <point x="1139" y="214"/>
      <point x="975" y="168"/>
      <point x="821" y="168" type="curve" smooth="yes"/>
      <point x="807" y="168"/>
      <point x="793" y="168"/>
      <point x="780" y="169" type="curve"/>
      <point x="885" y="1347" type="line"/>
      <point x="1065" y="1338"/>
      <point x="1144" y="1288"/>
      <point x="1170" y="1275" type="curve"/>
      <point x="1203" y="1481" type="line"/>
      <point x="1156" y="1492"/>
      <point x="1068" y="1525"/>
      <point x="902" y="1535" type="curve"/>
      <point x="927" y="1815" type="line"/>
      <point x="780" y="1815" type="line"/>
      <point x="755" y="1536" type="line"/>
      <point x="398" y="1513"/>
      <point x="96" y="1235"/>
    </contour>
    <contour>
      <point x="328" y="769" type="curve" smooth="yes"/>
      <point x="328" y="1091"/>
      <point x="482" y="1305"/>
      <point x="737" y="1343" type="curve"/>
      <point x="635" y="202" type="line"/>
      <point x="440" y="282"/>
      <point x="328" y="494"/>
    </contour>
  </outline>
</glyph>
<glyph name="rupeeIndian" format="1">
  <advance width="1390"/>
  <unicode hex="20B9"/>
  <outline>
    <contour>
      <point x="1249" y="0" type="line" name="hr00"/>
      <point x="1078" y="193"/>
      <point x="1021" y="565"/>
      <point x="817" y="689" type="curve"/>
      <point x="924" y="741"/>
      <point x="1051" y="846"/>
      <point x="1091" y="1015" type="curve"/>
      <point x="1298" y="1015" type="line"/>
      <point x="1298" y="1174" type="line"/>
      <point x="1103" y="1174" type="line"/>
      <point x="1097" y="1273"/>
      <point x="1072" y="1332"/>
      <point x="1040" y="1373" type="curve"/>
      <point x="1330" y="1373" type="line"/>
      <point x="1330" y="1522" type="line"/>
      <point x="171" y="1522" type="line"/>
      <point x="171" y="1373" type="line"/>
      <point x="697" y="1373" type="line"/>
      <point x="886" y="1368"/>
      <point x="899" y="1285"/>
      <point x="899" y="1174" type="curve"/>
      <point x="171" y="1174" type="line"/>
      <point x="171" y="1015" type="line"/>
      <point x="886" y="1015" type="line"/>
      <point x="843" y="851"/>
      <point x="700" y="763"/>
      <point x="542" y="763" type="curve" smooth="yes"/>
      <point x="368" y="763"/>
      <point x="214" y="763"/>
      <point x="171" y="768" type="curve"/>
      <point x="171" y="626" type="line"/>
      <point x="214" y="621"/>
      <point x="411" y="606"/>
      <point x="656" y="630" type="curve"/>
      <point x="797" y="502"/>
      <point x="931" y="0"/>
      <point x="1016" y="0" type="curve" smooth="yes"/>
    </contour>
  </outline>
</glyph>
<glyph name="liraTurkish" format="1">
  <advance width="1416"/>
  <unicode hex="20BA"/>
  <outline>
    <contour>
      <point x="1090" y="719" type="line" name="hr00"/>
      <point x="1090" y="328"/>
      <point x="853" y="184"/>
      <point x="567" y="184" type="curve"/>
      <point x="567" y="633" type="line"/>
      <point x="1014" y="826" type="line"/>
      <point x="1014" y="993" type="line"/>
      <point x="567" y="800" type="line"/>
      <point x="567" y="1017" type="line"/>
      <point x="1036" y="1222" type="line"/>
      <point x="1036" y="1399" type="line"/>
      <point x="567" y="1194" type="line"/>
      <point x="567" y="1538" type="line"/>
      <point x="342" y="1538" type="line"/>
      <point x="342" y="1096" type="line"/>
      <point x="86" y="984" type="line"/>
      <point x="86" y="807" type="line"/>
      <point x="342" y="919" type="line"/>
      <point x="342" y="702" type="line"/>
      <point x="96" y="596" type="line"/>
      <point x="96" y="429" type="line"/>
      <point x="342" y="535" type="line"/>
      <point x="342" y="0" type="line"/>
      <point x="567" y="0" type="line" smooth="yes"/>
      <point x="992" y="0"/>
      <point x="1306" y="256"/>
      <point x="1306" y="664" type="curve" smooth="yes"/>
      <point x="1306" y="719" type="line"/>
    </contour>
  </outline>
</glyph>
<glyph name="afii61352" format="1">
  <advance width="2587"/>
  <unicode hex="2116"/>
  <outline>
    <contour>
      <point x="194" y="0" type="line"/>
      <point x="397" y="0" type="line"/>
      <point x="397" y="963" type="line"/>
      <point x="377" y="1390" type="line"/>
      <point x="289" y="1386" type="line"/>
      <point x="519" y="924" type="line"/>
      <point x="1077" y="0" type="line"/>
      <point x="1271" y="0" type="line"/>
      <point x="1271" y="1522" type="line"/>
      <point x="1067" y="1522" type="line"/>
      <point x="1067" y="518" type="line"/>
      <point x="1087" y="97" type="line"/>
      <point x="1182" y="97" type="line"/>
      <point x="969" y="554" type="line"/>
      <point x="388" y="1522" type="line"/>
      <point x="194" y="1522" type="line"/>
    </contour>
    <contour>
      <point x="1996" y="399" type="curve" smooth="yes"/>
      <point x="2281" y="399"/>
      <point x="2488" y="593"/>
      <point x="2493" y="946" type="curve" smooth="yes"/>
      <point x="2497" y="1259"/>
      <point x="2361" y="1530"/>
      <point x="2015" y="1530" type="curve" smooth="yes"/>
      <point x="1729" y="1530"/>
      <point x="1520" y="1339"/>
      <point x="1515" y="986" type="curve" smooth="yes"/>
      <point x="1511" y="674"/>
      <point x="1638" y="399"/>
    </contour>
    <contour>
      <point x="2001" y="554" type="curve" smooth="yes"/>
      <point x="1819" y="558"/>
      <point x="1731" y="742"/>
      <point x="1731" y="985" type="curve" smooth="yes"/>
      <point x="1731" y="1238"/>
      <point x="1829" y="1376"/>
      <point x="2010" y="1373" type="curve" smooth="yes"/>
      <point x="2193" y="1370"/>
      <point x="2277" y="1193"/>
      <point x="2277" y="953" type="curve" smooth="yes"/>
      <point x="2277" y="696"/>
      <point x="2183" y="550"/>
    </contour>
    <contour>
      <point x="1580" y="0" type="line"/>
      <point x="2440" y="0" type="line"/>
      <point x="2440" y="165" type="line"/>
      <point x="1580" y="165" type="line"/>
    </contour>
  </outline>
</glyph>
<glyph name="trademark" format="1">
  <advance width="2218"/>
  <unicode hex="2122"/>
  <outline>
    <contour>
      <point x="426" y="767" type="line"/>
      <point x="610" y="767" type="line"/>
      <point x="610" y="1391" type="line"/>
      <point x="866" y="1390" type="line"/>
      <point x="866" y="1543" type="line"/>
      <point x="177" y="1543" type="line"/>
      <point x="178" y="1390" type="line"/>
      <point x="426" y="1391" type="line"/>
    </contour>
    <contour>
      <point x="1178" y="767" type="line"/>
      <point x="1203" y="1303" type="line"/>
      <point x="1207" y="1465" type="line"/>
      <point x="1193" y="1465" type="line"/>
      <point x="1257" y="1295" type="line"/>
      <point x="1466" y="760" type="line"/>
      <point x="1584" y="760" type="line"/>
      <point x="1767" y="1295" type="line"/>
      <point x="1822" y="1463" type="line"/>
      <point x="1809" y="1463" type="line"/>
      <point x="1817" y="1303" type="line"/>
      <point x="1856" y="767" type="line"/>
      <point x="2033" y="767" type="line"/>
      <point x="1959" y="1543" type="line"/>
      <point x="1683" y="1543" type="line"/>
      <point x="1554" y="1138" type="line"/>
      <point x="1496" y="864" type="line"/>
      <point x="1560" y="864" type="line"/>
      <point x="1486" y="1138" type="line"/>
      <point x="1342" y="1543" type="line"/>
      <point x="1049" y="1543" type="line"/>
      <point x="1008" y="767" type="line"/>
    </contour>
  </outline>
</glyph>
<glyph name="Omega" format="1">
  <advance width="1804"/>
  <unicode hex="2126"/>
  <outline>
    <contour>
      <point x="894" y="1545" type="curve" smooth="yes"/>
      <point x="550" y="1545"/>
      <point x="194" y="1333"/>
      <point x="194" y="859" type="curve" smooth="yes"/>
      <point x="194" y="508"/>
      <point x="428" y="206"/>
      <point x="592" y="112" type="curve"/>
      <point x="760" y="0" type="line"/>
      <point x="760" y="151" type="line"/>
      <point x="606" y="258"/>
      <point x="418" y="519"/>
      <point x="418" y="851" type="curve" smooth="yes"/>
      <point x="418" y="1243"/>
      <point x="665" y="1383"/>
      <point x="895" y="1383" type="curve" smooth="yes"/>
      <point x="1113" y="1383"/>
      <point x="1356" y="1239"/>
      <point x="1356" y="851" type="curve" smooth="yes"/>
      <point x="1356" y="519"/>
      <point x="1205" y="258"/>
      <point x="1039" y="151" type="curve"/>
      <point x="1039" y="0" type="line"/>
      <point x="1068" y="16"/>
      <point x="1147" y="80"/>
      <point x="1178" y="97" type="curve"/>
      <point x="1380" y="206"/>
      <point x="1579" y="508"/>
      <point x="1579" y="859" type="curve" smooth="yes"/>
      <point x="1579" y="1307"/>
      <point x="1285" y="1545"/>
    </contour>
    <contour>
      <point x="199" y="0" type="line"/>
      <point x="760" y="0" type="line"/>
      <point x="592" y="154" type="line"/>
      <point x="198" y="154" type="line"/>
    </contour>
    <contour>
      <point x="1039" y="0" type="line"/>
      <point x="1620" y="0" type="line"/>
      <point x="1620" y="154" type="line"/>
      <point x="1147" y="154" type="line"/>
    </contour>
  </outline>
</glyph>
<glyph name="estimated" format="1">
  <advance width="1373"/>
  <unicode hex="212E"/>
  <outline>
    <contour>
      <point x="727" y="-16" type="curve" smooth="yes"/>
      <point x="880" y="-16"/>
      <point x="1076" y="29"/>
      <point x="1161" y="90" type="curve"/>
      <point x="1113" y="212" type="line"/>
      <point x="1046" y="174"/>
      <point x="898" y="112"/>
      <point x="748" y="112" type="curve" smooth="yes"/>
      <point x="501" y="112"/>
      <point x="309" y="222"/>
      <point x="294" y="580" type="curve"/>
      <point x="287" y="682"/>
      <point x="293" y="808"/>
      <point x="309" y="882" type="curve" smooth="yes"/>
      <point x="362" y="1133"/>
      <point x="527" y="1227"/>
      <point x="718" y="1227" type="curve" smooth="yes"/>
      <point x="984" y="1227"/>
      <point x="1065" y="1079"/>
      <point x="1082" y="914" type="curve" smooth="yes"/>
      <point x="1087" y="872"/>
      <point x="1087" y="810"/>
      <point x="1085" y="768" type="curve"/>
      <point x="243" y="768" type="line"/>
      <point x="223" y="626" type="line"/>
      <point x="1258" y="626" type="line"/>
      <point x="1269" y="677"/>
      <point x="1269" y="746"/>
      <point x="1269" y="832" type="curve"/>
      <point x="1258" y="1161"/>
      <point x="1022" y="1361"/>
      <point x="731" y="1356" type="curve" smooth="yes"/>
      <point x="309" y="1349"/>
      <point x="104" y="1063"/>
      <point x="104" y="671" type="curve" smooth="yes"/>
      <point x="104" y="241"/>
      <point x="333" y="-16"/>
    </contour>
    <contour>
      <point x="285" y="237" type="line"/>
      <point x="382" y="199" type="line"/>
      <point x="382" y="1146" type="line"/>
      <point x="285" y="1078" type="line"/>
    </contour>
    <contour>
      <point x="1009" y="736" type="line"/>
      <point x="1097" y="736" type="line"/>
      <point x="1097" y="1158" type="line"/>
      <point x="1009" y="1198" type="line"/>
    </contour>
  </outline>
</glyph>
<glyph name="partialdiff" format="1">
  <advance width="1367"/>
  <unicode hex="2202"/>
  <outline>
    <contour>
      <point x="670" y="-30" type="curve" smooth="yes"/>
      <point x="1088" y="-30"/>
      <point x="1226" y="371"/>
      <point x="1226" y="822" type="curve" smooth="yes"/>
      <point x="1226" y="1237"/>
      <point x="1057" y="1685"/>
      <point x="547" y="1685" type="curve" smooth="yes"/>
      <point x="439" y="1685"/>
      <point x="287" y="1658"/>
      <point x="197" y="1593" type="curve"/>
      <point x="270" y="1467" type="line"/>
      <point x="322" y="1499"/>
      <point x="424" y="1521"/>
      <point x="505" y="1521" type="curve" smooth="yes"/>
      <point x="875" y="1521"/>
      <point x="1003" y="1249"/>
      <point x="1017" y="920" type="curve" smooth="yes"/>
      <point x="1018" y="888"/>
      <point x="1018" y="850"/>
      <point x="1018" y="811" type="curve" smooth="yes"/>
      <point x="1018" y="546"/>
      <point x="975" y="132"/>
      <point x="688" y="132" type="curve" smooth="yes"/>
      <point x="459" y="132"/>
      <point x="388" y="283"/>
      <point x="377" y="481" type="curve" smooth="yes"/>
      <point x="362" y="765"/>
      <point x="553" y="897"/>
      <point x="725" y="897" type="curve" smooth="yes"/>
      <point x="877" y="897"/>
      <point x="993" y="876"/>
      <point x="1113" y="774" type="curve"/>
      <point x="1113" y="774"/>
      <point x="1084" y="972"/>
      <point x="1083" y="973" type="curve"/>
      <point x="982" y="1026"/>
      <point x="862" y="1050"/>
      <point x="742" y="1050" type="curve" smooth="yes"/>
      <point x="411" y="1050"/>
      <point x="145" y="834"/>
      <point x="166" y="447" type="curve" smooth="yes"/>
      <point x="181" y="154"/>
      <point x="395" y="-30"/>
    </contour>
  </outline>
</glyph>
<glyph name="Delta" format="1">
  <advance width="1577"/>
  <unicode hex="2206"/>
  <outline>
    <contour>
      <point x="69" y="0" type="line"/>
      <point x="1505" y="0" type="line"/>
      <point x="1521" y="27" type="line"/>
      <point x="775" y="1508" type="line"/>
      <point x="743" y="1508" type="line"/>
      <point x="55" y="22" type="line"/>
    </contour>
    <contour>
      <point x="340" y="174" type="line"/>
      <point x="768" y="1123" type="line"/>
      <point x="1220" y="174" type="line"/>
    </contour>
  </outline>
</glyph>
<glyph name="minus" format="1">
  <advance width="1350"/>
  <unicode hex="2212"/>
  <outline>
    <contour>
      <point x="250" y="683" type="line"/>
      <point x="1100" y="683" type="line"/>
      <point x="1100" y="860" type="line"/>
      <point x="250" y="860" type="line"/>
    </contour>
  </outline>
</glyph>
<glyph name="uni2215" format="1">
  <advance width="854"/>
  <unicode hex="2215"/>
  <outline>
    <contour>
      <point x="-57" y="-363" type="line"/>
      <point x="136" y="-363" type="line"/>
      <point x="911" y="1599" type="line"/>
      <point x="718" y="1599" type="line"/>
    </contour>
  </outline>
</glyph>
<glyph name="uni2219" format="1">
  <advance width="602"/>
  <unicode hex="2219"/>
  <outline>
    <contour>
      <point x="291" y="530" type="curve" smooth="yes"/>
      <point x="395" y="530"/>
      <point x="490" y="621"/>
      <point x="486" y="740" type="curve" smooth="yes"/>
      <point x="484" y="838"/>
      <point x="424" y="922"/>
      <point x="309" y="922" type="curve" smooth="yes"/>
      <point x="210" y="922"/>
      <point x="113" y="827"/>
      <point x="116" y="713" type="curve" smooth="yes"/>
      <point x="119" y="607"/>
      <point x="200" y="530"/>
    </contour>
  </outline>
</glyph>
<glyph name="radical" format="1">
  <advance width="1602"/>
  <unicode hex="221A"/>
  <outline>
    <contour>
      <point x="696" y="-354" type="line"/>
      <point x="870" y="-354" type="line"/>
      <point x="1582" y="1870" type="line"/>
      <point x="1366" y="1870" type="line"/>
      <point x="744" y="-154" type="line"/>
      <point x="814" y="-154" type="line"/>
      <point x="461" y="716" type="line"/>
      <point x="267" y="716" type="line"/>
      <point x="84" y="604" type="line"/>
      <point x="179" y="446" type="line"/>
      <point x="304" y="522" type="line"/>
    </contour>
  </outline>
</glyph>
<glyph name="infinity" format="1">
  <advance width="1804"/>
  <unicode hex="221E"/>
  <outline>
    <contour>
      <point x="493" y="226" type="curve" smooth="yes"/>
      <point x="725" y="229"/>
      <point x="891" y="417"/>
      <point x="970" y="579" type="curve"/>
      <point x="844" y="663" type="line"/>
      <point x="748" y="505"/>
      <point x="646" y="378"/>
      <point x="516" y="378" type="curve" smooth="yes"/>
      <point x="349" y="378"/>
      <point x="272" y="485"/>
      <point x="272" y="613" type="curve" smooth="yes"/>
      <point x="272" y="730"/>
      <point x="344" y="844"/>
      <point x="514" y="844" type="curve" smooth="yes"/>
      <point x="662" y="844"/>
      <point x="753" y="668"/>
      <point x="837" y="553" type="curve"/>
      <point x="971" y="669" type="line"/>
      <point x="860" y="825"/>
      <point x="744" y="1008"/>
      <point x="494" y="1008" type="curve" smooth="yes"/>
      <point x="265" y="1008"/>
      <point x="74" y="880"/>
      <point x="74" y="602" type="curve" smooth="yes"/>
      <point x="74" y="401"/>
      <point x="232" y="222"/>
    </contour>
    <contour>
      <point x="1300" y="225" type="curve" smooth="yes"/>
      <point x="1571" y="225"/>
      <point x="1730" y="375"/>
      <point x="1730" y="631" type="curve" smooth="yes"/>
      <point x="1730" y="816"/>
      <point x="1603" y="1012"/>
      <point x="1314" y="1008" type="curve"/>
      <point x="1090" y="1004"/>
      <point x="923" y="807"/>
      <point x="844" y="654" type="curve"/>
      <point x="976" y="571" type="line"/>
      <point x="1071" y="726"/>
      <point x="1161" y="843"/>
      <point x="1290" y="843" type="curve" smooth="yes"/>
      <point x="1447" y="843"/>
      <point x="1532" y="737"/>
      <point x="1532" y="613" type="curve" smooth="yes"/>
      <point x="1532" y="492"/>
      <point x="1467" y="377"/>
      <point x="1334" y="377" type="curve" smooth="yes"/>
      <point x="1162" y="377"/>
      <point x="1048" y="571"/>
      <point x="962" y="689" type="curve"/>
      <point x="828" y="572" type="line"/>
      <point x="942" y="417"/>
      <point x="1048" y="225"/>
    </contour>
  </outline>
</glyph>
<glyph name="notequal" format="1">
  <advance width="1399"/>
  <unicode hex="2260"/>
  <outline>
    <contour>
      <point x="410" y="203" type="line"/>
      <point x="580" y="203" type="line"/>
      <point x="702" y="535" type="line"/>
      <point x="709" y="550" type="line"/>
      <point x="882" y="1031" type="line"/>
      <point x="888" y="1044" type="line"/>
      <point x="992" y="1319" type="line"/>
      <point x="820" y="1319" type="line"/>
      <point x="717" y="1045" type="line"/>
      <point x="711" y="1031" type="line"/>
      <point x="538" y="551" type="line"/>
      <point x="532" y="537" type="line"/>
    </contour>
    <component base="equal"/>
  </outline>
</glyph>
<glyph name="lozenge" format="1">
  <advance width="1175"/>
  <unicode hex="25CA"/>
  <outline>
    <contour>
      <point x="586" y="1226" type="line"/>
      <point x="589" y="1226" type="line"/>
      <point x="908" y="772" type="line"/>
      <point x="908" y="769" type="line"/>
      <point x="589" y="293" type="line"/>
      <point x="586" y="293" type="line"/>
      <point x="267" y="766" type="line"/>
      <point x="267" y="772" type="line"/>
    </contour>
    <contour>
      <point x="50" y="775" type="line"/>
      <point x="50" y="762" type="line"/>
      <point x="585" y="0" type="line"/>
      <point x="590" y="0" type="line"/>
      <point x="1125" y="762" type="line"/>
      <point x="1125" y="775" type="line"/>
      <point x="590" y="1516" type="line"/>
      <point x="586" y="1516" type="line"/>
    </contour>
  </outline>
</glyph>
<glyph name="IJ_acutecomb" format="1">
  <advance width="1353"/>
  <outline>
    <contour>
      <point x="207" y="0" type="line"/>
      <point x="433" y="0" type="line"/>
      <point x="433" y="1522" type="line"/>
      <point x="207" y="1522" type="line"/>
    </contour>
    <contour>
      <point x="286" y="1573" type="line"/>
      <point x="401" y="1614"/>
      <point x="589" y="1752"/>
      <point x="682" y="1847" type="curve"/>
      <point x="536" y="1980" type="line"/>
      <point x="531" y="1967"/>
      <point x="200" y="1671"/>
      <point x="193" y="1665" type="curve"/>
    </contour>
    <contour>
      <point x="666" y="-332" type="line"/>
      <point x="835" y="-306"/>
      <point x="1069" y="-175"/>
      <point x="1115" y="86" type="curve" smooth="yes"/>
      <point x="1142" y="232"/>
      <point x="1134" y="414"/>
      <point x="1134" y="613" type="curve" smooth="yes"/>
      <point x="1134" y="1522" type="line"/>
      <point x="908" y="1522" type="line"/>
      <point x="908" y="608" type="line" smooth="yes"/>
      <point x="908" y="395"/>
      <point x="909" y="186"/>
      <point x="876" y="66" type="curve" smooth="yes"/>
      <point x="833" y="-91"/>
      <point x="704" y="-177"/>
      <point x="598" y="-215" type="curve"/>
    </contour>
    <component base="acute.cap" xOffset="836" yOffset="-10"/>
  </outline>
</glyph>
<glyph name="breve.cap" format="1">
  <advance width="781"/>
  <outline>
    <contour>
      <point x="391" y="1632" type="curve" smooth="yes"/>
      <point x="611" y="1632"/>
      <point x="750" y="1789"/>
      <point x="733" y="1970" type="curve"/>
      <point x="584" y="1970" type="line"/>
      <point x="583" y="1946"/>
      <point x="581" y="1805"/>
      <point x="391" y="1805" type="curve" smooth="yes"/>
      <point x="201" y="1805"/>
      <point x="203" y="1946"/>
      <point x="202" y="1970" type="curve"/>
      <point x="49" y="1970" type="line"/>
      <point x="33" y="1789"/>
      <point x="160" y="1632"/>
    </contour>
    <contour>
      <point x="391" y="1700" type="move" name="_top"/>
    </contour>
  </outline>
</glyph>
<glyph name="caronvertical" format="1">
  <advance width="339"/>
  <outline>
    <contour>
      <point x="175" y="1034" type="line"/>
      <point x="240" y="1112"/>
      <point x="302" y="1270"/>
      <point x="302" y="1446" type="curve" smooth="yes"/>
      <point x="302" y="1551"/>
      <point x="284" y="1648"/>
      <point x="240" y="1687" type="curve"/>
      <point x="64" y="1632" type="line"/>
      <point x="50" y="1585" type="line"/>
      <point x="75" y="1554"/>
      <point x="105" y="1462"/>
      <point x="105" y="1383" type="curve" smooth="yes"/>
      <point x="105" y="1220"/>
      <point x="78" y="1172"/>
      <point x="57" y="1096" type="curve"/>
      <point x="65" y="1068" type="line"/>
    </contour>
  </outline>
</glyph>
<glyph name="circumflex.cap" format="1">
  <advance width="815"/>
  <outline>
    <contour>
      <point x="185" y="1632" type="line"/>
      <point x="406" y="1834" type="line"/>
      <point x="622" y="1632" type="line"/>
      <point x="766" y="1692" type="line"/>
      <point x="504" y="1990" type="line"/>
      <point x="307" y="1990" type="line"/>
      <point x="48" y="1689" type="line"/>
    </contour>
    <contour>
      <point x="406" y="1700" type="move" name="_top"/>
    </contour>
  </outline>
</glyph>
<glyph name="dotaccent.cap" format="1">
  <advance width="403"/>
  <outline>
    <contour>
      <point x="191" y="1669" type="curve" smooth="yes"/>
      <point x="274" y="1669"/>
      <point x="351" y="1731"/>
      <point x="351" y="1823" type="curve" smooth="yes"/>
      <point x="351" y="1898"/>
      <point x="307" y="1956"/>
      <point x="212" y="1956" type="curve" smooth="yes"/>
      <point x="133" y="1956"/>
      <point x="52" y="1889"/>
      <point x="52" y="1802" type="curve" smooth="yes"/>
      <point x="52" y="1719"/>
      <point x="116" y="1669"/>
    </contour>
    <contour>
      <point x="200" y="1700" type="move" name="_top"/>
    </contour>
  </outline>
</glyph>
<glyph name="four.numr" format="1">
  <advance width="1151"/>
  <outline>
    <contour>
      <point x="159" y="875" type="line"/>
      <point x="1056" y="875" type="line"/>
      <point x="1055" y="1026" type="line"/>
      <point x="350" y="1026" type="line"/>
      <point x="392" y="1095" type="line"/>
      <point x="788" y="1703" type="line"/>
      <point x="657" y="1780" type="line"/>
      <point x="589" y="1780" type="line"/>
      <point x="107" y="969" type="line"/>
    </contour>
    <contour>
      <point x="657" y="593" type="line"/>
      <point x="861" y="593" type="line"/>
      <point x="861" y="1298" type="line"/>
      <point x="666" y="1278" type="line"/>
      <point x="658" y="1029" type="line"/>
    </contour>
  </outline>
</glyph>
<glyph name="hungarumlaut.cap" format="1">
  <advance width="962"/>
  <outline>
    <contour>
      <point x="180" y="1641" type="line"/>
      <point x="254" y="1687"/>
      <point x="354" y="1802"/>
      <point x="435" y="1913" type="curve"/>
      <point x="263" y="2000" type="line"/>
      <point x="258" y="1987"/>
      <point x="63" y="1717"/>
      <point x="56" y="1710" type="curve"/>
    </contour>
    <contour>
      <point x="649" y="1641" type="line"/>
      <point x="727" y="1687"/>
      <point x="832" y="1802"/>
      <point x="903" y="1904" type="curve"/>
      <point x="740" y="1992" type="line"/>
      <point x="735" y="1980"/>
      <point x="532" y="1717"/>
      <point x="524" y="1710" type="curve"/>
    </contour>
    <contour>
      <point x="415" y="1700" type="move" name="_top"/>
    </contour>
  </outline>
</glyph>
<glyph name="ij_acutecomb" format="1">
  <advance width="1180"/>
  <outline>
    <contour>
      <point x="193" y="0" type="line"/>
      <point x="413" y="0" type="line"/>
      <point x="413" y="1138" type="line"/>
      <point x="193" y="1138" type="line"/>
    </contour>
    <contour>
      <point x="284" y="1294" type="line"/>
      <point x="357" y="1322"/>
      <point x="618" y="1565"/>
      <point x="667" y="1648" type="curve"/>
      <point x="511" y="1783" type="line"/>
      <point x="413" y="1645"/>
      <point x="287" y="1509"/>
      <point x="173" y="1384" type="curve"/>
    </contour>
    <contour>
      <point x="527" y="-494" type="line"/>
      <point x="542" y="-503"/>
      <point x="635" y="-507"/>
      <point x="666" y="-507" type="curve" smooth="yes"/>
      <point x="893" y="-507"/>
      <point x="1019" y="-356"/>
      <point x="1019" y="37" type="curve" smooth="yes"/>
      <point x="1019" y="1138" type="line"/>
      <point x="799" y="1138" type="line"/>
      <point x="799" y="-48" type="line" smooth="yes"/>
      <point x="799" y="-248"/>
      <point x="764" y="-353"/>
      <point x="644" y="-353" type="curve" smooth="yes"/>
      <point x="610" y="-353"/>
      <point x="548" y="-341"/>
      <point x="527" y="-331" type="curve"/>
    </contour>
    <component base="acute" xOffset="723"/>
  </outline>
</glyph>
<glyph name="one.numr" format="1">
  <advance width="1026"/>
  <outline>
    <contour>
      <point x="468" y="663" type="line"/>
      <point x="679" y="663" type="line"/>
      <point x="679" y="1664" type="line"/>
      <point x="574" y="1689" type="line"/>
      <point x="527" y="1650"/>
      <point x="343" y="1531"/>
      <point x="222" y="1496" type="curve"/>
      <point x="262" y="1375" type="line"/>
      <point x="348" y="1391"/>
      <point x="384" y="1408"/>
      <point x="468" y="1426" type="curve"/>
    </contour>
  </outline>
</glyph>
<glyph name="ring.cap" format="1">
  <advance width="731"/>
  <outline>
    <contour>
      <point x="362" y="1435" type="curve" smooth="yes"/>
      <point x="534" y="1435"/>
      <point x="684" y="1516"/>
      <point x="686" y="1707" type="curve" smooth="yes"/>
      <point x="687" y="1878"/>
      <point x="560" y="1970"/>
      <point x="365" y="1970" type="curve" smooth="yes"/>
      <point x="209" y="1970"/>
      <point x="48" y="1899"/>
      <point x="45" y="1708" type="curve" smooth="yes"/>
      <point x="42" y="1539"/>
      <point x="170" y="1435"/>
    </contour>
    <contour>
      <point x="363" y="1561" type="curve" smooth="yes"/>
      <point x="263" y="1563"/>
      <point x="201" y="1619"/>
      <point x="201" y="1708" type="curve" smooth="yes"/>
      <point x="201" y="1817"/>
      <point x="283" y="1847"/>
      <point x="363" y="1846" type="curve" smooth="yes"/>
      <point x="458" y="1845"/>
      <point x="532" y="1799"/>
      <point x="532" y="1706" type="curve" smooth="yes"/>
      <point x="532" y="1599"/>
      <point x="462" y="1560"/>
    </contour>
    <contour>
      <point x="366" y="1700" type="move" name="_top"/>
    </contour>
  </outline>
</glyph>
